<?xml version="1.0" encoding="UTF-8"?>
<svg width="120px" height="37px" viewBox="0 0 120 37" version="1.1" xmlns="http://www.w3.org/2000/svg" xmlns:xlink="http://www.w3.org/1999/xlink">
	<g id="Symbols" stroke="none" stroke-width="1" fill="none" fill-rule="evenodd">
		<g id="Desktop_footer" transform="translate(-1431, -205)">
			<g id="footer">
				<g id="Group-2" transform="translate(1158, 206)">
					<g id="apk-footer" transform="translate(274, 0)">
						<path d="M113.86511,35 L4.13576326,35 C1.85457297,34.9995215 0.0043404812,33.1509675 0,30.8679887 L0,4.13638751 C0.00337465324,1.85229917 1.85346672,0.00192785666 4.13576326,0 L113.864236,0 C116.146134,0.0028896814 117.995663,1.8526986 118,4.13638751 L118,30.8679887 C118.001748,33.1471155 116.143322,35 113.86511,35 L113.86511,35 Z" id="Path" stroke="#FFFFFF" fill-rule="nonzero"></path>
						<text id="Download-APK-File" font-family="OpenSans-SemiBold, Open Sans, Roboto, Arial" font-size="8" font-weight="500" line-spacing="12" fill="#FFFFFF">
							<tspan x="39" y="15">Download </tspan>
							<tspan x="39" y="27">APK File</tspan>
						</text>
						<g id="android" transform="translate(13, 8)" fill-rule="nonzero">
							<g id="Group" fill="#FFFFFF">
								<path d="M1.21211111,6.32544444 C0.557555556,6.32544444 0.0269259259,6.85607407 0.0269259259,7.51062963 L0.0269259259,13.0414815 C0.0269259259,13.696037 0.557555556,14.2266667 1.21211111,14.2266667 C1.86666667,14.2266667 2.3972963,13.696037 2.3972963,13.0414815 L2.3972963,7.51062963 C2.3972963,6.85607407 1.86666667,6.32544444 1.21211111,6.32544444 Z" id="Path"></path>
								<path d="M14.6441852,6.32544444 C13.9896296,6.32544444 13.459,6.85607407 13.459,7.51062963 L13.459,13.0414815 C13.459,13.696037 13.9896296,14.2266667 14.6441852,14.2266667 C15.2987407,14.2266667 15.8293704,13.696037 15.8293704,13.0414815 L15.8293704,7.51062963 C15.8293704,6.85607407 15.2987778,6.32544444 14.6441852,6.32544444 Z" id="Path"></path>
								<path d="M12.2738148,6.32544444 L3.58248148,6.32544444 C3.3642963,6.32544444 3.18740737,6.50233333 3.18740737,6.72051852 L3.18740737,13.0414815 C3.18722222,13.9802963 3.84781481,14.7895185 4.76766667,14.9772963 L4.76766667,17.7822222 C4.76766667,18.4367778 5.2982963,18.9674074 5.95285185,18.9674074 C6.60740741,18.9674074 7.13803704,18.4367778 7.13803704,17.7822222 L7.13803704,15.0167778 L8.7182963,15.0167778 L8.7182963,17.7822222 C8.7182963,18.4367778 9.24892593,18.9674074 9.90348148,18.9674074 C10.558037,18.9674074 11.0886667,18.4367778 11.0886667,17.7822222 L11.0886667,14.9772963 C12.0085185,14.7895185 12.6691111,13.9802963 12.668926,13.0414815 L12.668926,6.72051852 C12.668926,6.50233333 12.492,6.32544444 12.2738148,6.32544444 Z" id="Path"></path>
								<path d="M10.8002593,1.64159259 L11.7634074,0.679222222 C11.9203333,0.52762963 11.9246667,0.277555556 11.7731111,0.120592593 C11.6215185,-0.0363333333 11.3714444,-0.0406666667 11.2144815,0.110888889 C11.2111852,0.114074074 11.207963,0.117296296 11.2047778,0.120592593 L10.0828148,1.24259259 C8.70866667,0.645666667 7.14840741,0.645666667 5.77425926,1.24259259 L4.6522963,0.119814815 C4.49537037,-0.0317777778 4.24525926,-0.0274074074 4.09366667,0.129518519 C3.94581481,0.28262963 3.94581481,0.525333333 4.09366667,0.678407407 L5.05603704,1.64155556 C3.88281481,2.41785185 3.18014815,3.73344444 3.1873517,5.14022222 C3.1873517,5.35840741 3.3642963,5.5352963 3.58248148,5.5352963 L12.2738519,5.5352963 C12.492037,5.5352963 12.6689811,5.35840741 12.6689811,5.14022222 C12.6761481,3.73348148 11.9734815,2.41788889 10.8002593,1.64159259 Z" id="Path"></path>
							</g>
							<g id="Group" transform="translate(5.555556, 3.148148)" fill="#4D4D4D">
								<ellipse id="Oval" cx="0.397296296" cy="0.873057851" rx="1" ry="1"></ellipse>
								<ellipse id="Oval" cx="4.34788889" cy="0.873057851" rx="1" ry="1"></ellipse>
							</g>
						</g>
					</g>
				</g>
			</g>
		</g>
	</g>
</svg>