<?xml version="1.0" encoding="UTF-8"?>
<svg width="25px" height="25px" viewBox="0 0 25 25" version="1.1" xmlns="http://www.w3.org/2000/svg" xmlns:xlink="http://www.w3.org/1999/xlink">
    <!-- Generator: Sketch 57.1 (83088) - https://sketch.com -->
    <title>apk_header</title>
    <desc>Created with Sketch.</desc>
    <g id="Symbols" stroke="none" stroke-width="1" fill="none" fill-rule="evenodd">
        <g id="Desktop_header" transform="translate(-1488.000000, -38.000000)">
            <g id="header">
                <g id="apk_header" transform="translate(1488.000000, 38.000000)">
                    <rect id="Rectangle" fill="#4D4D4D" x="0" y="0" width="25" height="25" rx="12.5"></rect>
                    <g id="android" transform="translate(8.000000, 7.000000)" fill-rule="nonzero">
                        <g id="Group" fill="#FFFFFF">
                            <path d="M0.701748538,3.66209942 C0.322795322,3.66209942 0.015588694,3.96930604 0.015588694,4.34825926 L0.015588694,7.55033138 C0.015588694,7.9292846 0.322795322,8.23649123 0.701748538,8.23649123 C1.08070175,8.23649123 1.38790838,7.9292846 1.38790838,7.55033138 L1.38790838,4.34825926 C1.38790838,3.96930604 1.08070175,3.66209942 0.701748538,3.66209942 Z" id="Path"></path>
                            <path d="M8.47821248,3.66209942 C8.09925926,3.66209942 7.79205263,3.96930604 7.79205263,4.34825926 L7.79205263,7.55033138 C7.79205263,7.9292846 8.09925926,8.23649123 8.47821248,8.23649123 C8.85716569,8.23649123 9.16437232,7.9292846 9.16437232,7.55033138 L9.16437232,4.34825926 C9.16437232,3.96930604 8.85718713,3.66209942 8.47821248,3.66209942 Z" id="Path"></path>
                            <path d="M7.10589279,3.66209942 L2.07406823,3.66209942 C1.94775049,3.66209942 1.84534111,3.76450877 1.84534111,3.89082651 L1.84534111,7.55033138 C1.84523392,8.09385575 2.22768226,8.56235283 2.76022807,8.67106628 L2.76022807,10.2949708 C2.76022807,10.673924 3.0674347,10.9811306 3.44638791,10.9811306 C3.82534113,10.9811306 4.13254776,10.673924 4.13254776,10.2949708 L4.13254776,8.69392398 L5.0474347,8.69392398 L5.0474347,10.2949708 C5.0474347,10.673924 5.35464133,10.9811306 5.73359454,10.9811306 C6.11254776,10.9811306 6.41975439,10.673924 6.41975439,10.2949708 L6.41975439,8.67106628 C6.95230019,8.56235283 7.33474854,8.09385575 7.33464135,7.55033138 L7.33464135,3.89082651 C7.33464135,3.76450877 7.23221053,3.66209942 7.10589279,3.66209942 Z" id="Path"></path>
                            <path d="M6.25278168,0.950395712 L6.81039376,0.393233918 C6.90124561,0.305469786 6.90375439,0.160690058 6.8160117,0.0698167641 C6.72824756,-0.0210350877 6.58346784,-0.0235438596 6.49259454,0.0641988304 C6.49068616,0.066042885 6.48882066,0.0679083821 6.48697661,0.0698167641 L5.8374191,0.719395712 C5.04185965,0.373807018 4.13855166,0.373807018 3.3429922,0.719395712 L2.6934347,0.0693664717 C2.60258285,-0.0183976608 2.45778168,-0.0158674464 2.37001754,0.0749844055 C2.2844191,0.16362768 2.2844191,0.304140351 2.37001754,0.392762183 L2.92717934,0.950374269 C2.24794542,1.39980897 1.8411384,2.16146784 1.84530888,2.97591813 C1.84530888,3.10223587 1.94775049,3.20464522 2.07406823,3.20464522 L7.10591423,3.20464522 C7.23223197,3.20464522 7.33467325,3.10223587 7.33467325,2.97591813 C7.33882261,2.16148928 6.93201559,1.39983041 6.25278168,0.950395712 Z" id="Path"></path>
                        </g>
                        <g id="Group" transform="translate(3.216374, 1.822612)" fill="#4D4D4D">
                            <ellipse id="Oval" cx="0.230013645" cy="0.505454545" rx="1" ry="1"></ellipse>
                            <ellipse id="Oval" cx="2.51719883" cy="0.505454545" rx="1" ry="1"></ellipse>
                        </g>
                    </g>
                </g>
            </g>
        </g>
    </g>
</svg>