<?xml version="1.0" encoding="UTF-8"?>
<svg width="188px" height="57px" viewBox="0 0 188 57" version="1.1" xmlns="http://www.w3.org/2000/svg" xmlns:xlink="http://www.w3.org/1999/xlink">
    <!-- Generator: Sketch 57.1 (83088) - https://sketch.com -->
    <title>app store</title>
    <desc>Created with Sketch.</desc>
    <g id="Home-" stroke="none" stroke-width="1" fill="none" fill-rule="evenodd">
        <g id="Desktop_GC_Home" transform="translate(-175.000000, -542.000000)" fill-rule="nonzero">
            <g id="1-screen">
                <g id="app-store" transform="translate(176.000000, 543.000000)">
                    <path d="M184.378171,48.5027983 C184.378171,49.9007161 183.822328,51.2412986 182.833073,52.2292597 C181.843818,53.2172208 180.502301,53.7715181 179.104013,53.770061 L6.50534478,53.770061 C3.59228408,53.7730982 1.22810532,51.4150866 1.22430891,48.5027983 L1.22430891,6.49812074 C1.22810331,3.5847207 3.59117053,1.22474088 6.50534478,1.22398465 L179.102638,1.22398465 C180.50167,1.22398465 181.843381,1.7796948 182.832517,2.76882673 C183.821653,3.75795867 184.378171,5.09945935 184.378171,6.49812074 L184.378171,48.5027983 Z" id="Path" fill="#FFFFFF"></path>
                    <path d="M179.104013,54.995418 L6.50534478,54.995418 C2.91714874,54.9946661 0.00682735565,52.0900376 0,48.5027983 L0,6.499496 C0.00530815751,2.91051335 2.91540866,0.00302923666 6.50534478,0 L179.102638,0 C182.691947,0.00454054962 185.601163,2.91114097 185.607984,6.499496 L185.607984,48.5027983 C185.610734,52.0839849 182.687524,54.995418 179.104013,54.995418 L179.104013,54.995418 Z" id="Path" stroke="#000000" fill="#000000"></path>
                    <path d="M41.4449202,27.208216 C41.405027,22.7757413 45.0752024,20.6193279 45.2430291,20.5189336 C43.1644552,17.4892278 39.9427344,17.0752735 38.8105926,17.0422671 C36.1047323,16.7575876 33.4800341,18.6609524 32.1016548,18.6609524 C30.695763,18.6609524 28.573169,17.0697724 26.2854997,17.1165314 C23.3416558,17.1619151 20.5876485,18.8658667 19.077209,21.511874 C15.960036,26.9070333 18.2848473,34.8354282 21.2713357,39.1963892 C22.7652677,41.3335489 24.5109396,43.7168808 26.7958577,43.6329898 C29.0312532,43.5422224 29.8662594,42.2095919 32.5638658,42.2095919 C35.236711,42.2095919 36.020819,43.6329898 38.3511328,43.5793545 C40.750228,43.5422224 42.2606676,41.4339432 43.7023257,39.2789051 C45.4287388,36.832311 46.1220553,34.4200986 46.1495679,34.2963249 C46.0945428,34.2770712 41.4916915,32.5194842 41.4449202,27.208216 Z M37.0429106,14.1734672 C38.2452095,12.670304 39.067835,10.6252869 38.8394807,8.5500141 C37.0993113,8.62702886 34.9230679,9.75336979 33.6698707,11.2235266 C32.5611146,12.519025 31.5706624,14.6424321 31.8265292,16.6393149 C33.7812966,16.7850928 35.7883379,15.6532508 37.0429106,14.1734672 L37.0429106,14.1734672 Z" id="Shape" fill="#FFFFFF"></path>
                    <g id="Group" transform="translate(58.295944, 24.715514)" fill="#FFFFFF">
                        <path d="M15.5271324,18.6107916 L12.4030812,18.6107916 L10.6918,13.234886 L4.74358455,13.234886 L3.11346538,18.6107916 L0.0719518857,18.6107916 L5.96651783,0.308782934 L9.6064295,0.308782934 L15.5271324,18.6107916 L15.5271324,18.6107916 Z M10.1759395,10.9794536 L8.628358,6.2004124 C8.46465827,5.71219381 8.1565176,4.5624734 7.70531162,2.75262644 L7.6502865,2.75262644 C7.4687036,3.53102566 7.1784461,4.68074607 6.78088961,6.2004124 L5.25944505,10.9794536 L10.1759395,10.9794536 Z M30.656289,11.8499955 C30.656289,14.0944257 30.0468858,15.8685158 28.8267038,17.1708905 C27.7344552,18.3302378 26.3767104,18.9092238 24.7575962,18.9092238 C23.009173,18.9092238 21.7518491,18.2862293 20.9883755,17.0374899 L20.9883755,23.9619424 L18.0555366,23.9619424 L18.0555366,9.75134314 C18.0555366,8.3416979 18.0183947,6.89629581 17.946862,5.4137616 L20.5261645,5.4137616 L20.6898642,7.5055376 L20.7448894,7.5055376 C21.7229609,5.92948546 23.2072635,5.14145939 25.1991728,5.14145939 C26.7563837,5.14145939 28.0563521,5.75620224 29.0963269,6.98706321 C30.134926,8.2206747 30.656289,9.84073528 30.656289,11.8499955 Z M27.668425,11.957266 C27.668425,10.6727698 27.3795432,9.61381678 26.7990282,8.77903174 C26.1648637,7.91124038 25.3133499,7.47665707 24.2458626,7.47665707 C23.5222823,7.47665707 22.8647321,7.71870347 22.2773389,8.19591996 C21.6885702,8.67726223 21.3033943,9.30575772 21.1231871,10.0841569 C21.0427389,10.3752612 20.9970254,10.6748592 20.9869999,10.9767031 L20.9869999,13.1785002 C20.9869999,14.1370589 21.2813843,14.9470892 21.8701531,15.6099663 C22.4589218,16.2700928 23.223771,16.6015314 24.1647006,16.6015314 C25.2693298,16.6015314 26.1290973,16.1738244 26.744003,15.3252867 C27.3602844,14.4739985 27.668425,13.3517834 27.668425,11.957266 L27.668425,11.957266 Z M45.8390952,11.8499955 C45.8390952,14.0944257 45.229692,15.8685158 44.00951,17.1708905 C42.9158857,18.3302378 41.5595165,18.9092238 39.9390267,18.9092238 C38.1906036,18.9092238 36.9332796,18.2862293 36.169806,17.0374899 L36.169806,23.9619424 L33.2369672,23.9619424 L33.2369672,9.75134314 C33.2369672,8.3416979 33.1998252,6.89629581 33.1282926,5.4137616 L35.707595,5.4137616 L35.8712948,7.5055376 L35.9263199,7.5055376 C36.9030158,5.92948546 38.3873184,5.14145939 40.3806033,5.14145939 C41.9364386,5.14145939 43.236407,5.75620224 44.2791331,6.98706321 C45.3163566,8.2206747 45.8390952,9.84073528 45.8390952,11.8499955 L45.8390952,11.8499955 Z M42.8498556,11.957266 C42.8498556,10.6727698 42.5595981,9.61381678 41.9790831,8.77903174 C41.3449186,7.91124038 40.4961561,7.47665707 39.4286688,7.47665707 C38.7050884,7.47665707 38.0475383,7.71870347 37.4573938,8.19591996 C36.8686251,8.67726223 36.4848249,9.30575772 36.3046176,10.0841569 C36.2152018,10.4472265 36.1670548,10.7429082 36.1670548,10.9767031 L36.1670548,13.1785002 C36.1670548,14.1370589 36.4628148,14.9470892 37.0488323,15.6099663 C37.6376011,16.2687176 38.4024503,16.6015314 39.3461311,16.6015314 C40.452136,16.6015314 41.3119035,16.1738244 41.9254336,15.3252867 C42.5417149,14.4739985 42.8498556,13.3517834 42.8498556,11.957266 L42.8498556,11.957266 Z M62.8143446,13.4769324 C62.8143446,15.0351061 62.2695959,16.3017239 61.1869767,17.2795364 C59.9956829,18.3467409 58.3325486,18.8817185 56.2003252,18.8817185 C54.230426,18.8817185 52.651205,18.5021457 51.4599112,17.7416249 L52.1380958,15.2977814 C53.424308,16.0596775 54.8370779,16.4392503 56.37503,16.4392503 C57.4810349,16.4392503 58.3408024,16.1889523 58.9543325,15.6924821 C59.5692382,15.1946367 59.8801301,14.5290091 59.8801301,13.6983498 C59.8801301,12.9543322 59.6228877,12.3313377 59.1180322,11.8238655 C58.6104255,11.3177684 57.7712924,10.846053 56.5923792,10.412845 C53.387166,9.21774085 51.7831838,7.46978075 51.7831838,5.17033993 C51.7831838,3.66855203 52.3499425,2.43906633 53.4807087,1.47775704 C54.6114749,0.517823009 56.1109094,0.0378559957 57.976261,0.0378559957 C59.6421465,0.0378559957 61.0301551,0.328036625 62.1320331,0.907022621 L61.3960722,3.29723084 C60.3588487,2.73612327 59.1881892,2.45556949 57.8785914,2.45556949 C56.8441191,2.45556949 56.0324986,2.70999326 55.4519836,3.21609029 C54.9636357,3.66855203 54.7160226,4.22003275 54.7160226,4.87465825 C54.7160226,5.59667166 54.9980264,6.19628661 55.5592826,6.66662678 C56.0462549,7.09983483 56.9349106,7.57155026 58.2197471,8.07764728 C59.7962168,8.71301909 60.9544956,9.45291093 61.6959591,10.3028239 C62.4429251,11.1527368 62.8143446,12.2130651 62.8143446,13.4769324 Z M72.5359077,7.61418343 L69.3031819,7.61418343 L69.3031819,14.0215368 C69.3031819,15.6512242 69.8726919,16.464005 71.0144631,16.464005 C71.5385774,16.464005 71.9732758,16.4199966 72.3171828,16.3278539 L72.3983449,18.5544058 C71.8205811,18.7703221 71.0598588,18.878968 70.1175536,18.878968 C68.9592749,18.878968 68.0541117,18.5255252 67.4006884,17.8186397 C66.7500163,17.1117542 66.4226169,15.9276522 66.4226169,14.2608326 L66.4226169,7.60868238 L64.4967377,7.60868238 L64.4967377,5.40826054 L66.4226169,5.40826054 L66.4226169,2.99192231 L69.3031819,2.12275569 L69.3031819,5.40826054 L72.5359077,5.40826054 L72.5359077,7.61418343 L72.5359077,7.61418343 Z M87.0928031,11.9036308 C87.0928031,13.9321446 86.5122881,15.5975889 85.3540093,16.8999636 C84.142081,18.2408456 82.529845,18.9092238 80.5200525,18.9092238 C78.5804171,18.9092238 77.0383381,18.2669757 75.8883131,16.9838547 C74.7382881,15.6979832 74.1632756,14.0779226 74.1632756,12.1236729 C74.1632756,10.0786559 74.7575469,8.40358477 75.9419626,7.10121009 C77.1291295,5.79746015 78.7276093,5.14558518 80.7374018,5.14558518 C82.674286,5.14558518 84.2301212,5.78920857 85.4076588,7.07370482 C86.5329225,8.31969368 87.0928031,9.92875215 87.0928031,11.9036308 Z M84.0526652,11.9710187 C84.0526652,10.7621619 83.7912959,9.72521313 83.2671816,8.85742177 C82.6522759,7.80947087 81.771874,7.28549542 80.6314784,7.28549542 C79.4566921,7.28549542 78.5556558,7.80947087 77.9421257,8.85742177 C77.4166358,9.72521313 77.1552665,10.7800404 77.1552665,12.0260292 C77.1552665,13.2362612 77.4166358,14.2759605 77.9421257,15.1410014 C78.5762902,16.1889523 79.460819,16.7129277 80.6067171,16.7129277 C81.7278539,16.7129277 82.6068802,16.1779502 83.2424203,15.1148714 C83.7816665,14.2264511 84.0526652,13.1826259 84.0526652,11.9710187 Z M96.630032,7.99238094 C96.3249954,7.93732508 96.0155759,7.91016599 95.7056099,7.91124038 C94.6738889,7.91124038 93.8760247,8.29906473 93.3147685,9.08021448 C92.8277962,9.76784631 92.5829344,10.6370129 92.5829344,11.6863391 L92.5829344,18.6107916 L89.6500955,18.6107916 L89.6500955,9.56980834 C89.652711,8.1844548 89.6242742,6.7992166 89.5648066,5.41513686 L92.1193478,5.41513686 L92.2266467,7.94012092 L92.3078088,7.94012092 C92.6187007,7.07232956 93.105673,6.37232036 93.7742282,5.84834491 C94.386181,5.390489 95.1297228,5.14254658 95.894071,5.14145939 C96.1650697,5.14145939 96.4099315,5.16071308 96.6272807,5.19509468 L96.630032,7.99238094 L96.630032,7.99238094 Z M109.746645,11.3879069 C109.754082,11.8336293 109.718146,12.2790186 109.639346,12.7177868 L100.840829,12.7177868 C100.873844,14.0215368 101.300289,15.0199782 102.117412,15.70761 C102.858876,16.3209776 103.817688,16.6290366 104.995226,16.6290366 C106.297945,16.6290366 107.486488,16.4227471 108.555351,16.0060422 L109.014811,18.0400571 C107.765741,18.5846616 106.291067,18.8555885 104.589416,18.8555885 C102.542481,18.8555885 100.935748,18.253223 99.7664638,17.0512426 C98.5999312,15.8478869 98.0152893,14.2305768 98.0152893,12.2048135 C98.0152893,10.2161823 98.5586624,8.55898956 99.6467841,7.23736119 C100.785804,5.82634069 102.325132,5.12083044 104.262016,5.12083044 C106.16451,5.12083044 107.604792,5.82634069 108.582864,7.23736119 C109.357342,8.35545054 109.746645,9.7417163 109.746645,11.3879069 L109.746645,11.3879069 Z M106.949993,10.6273861 C106.970628,9.7568442 106.77804,9.00732551 106.380483,8.37332897 C105.872876,7.55642236 105.09152,7.14934432 104.044667,7.14934432 C103.085854,7.14934432 102.304497,7.54679551 101.710226,8.34444843 C101.221878,8.97844497 100.931621,9.74034103 100.842205,10.6246356 L106.949993,10.6273861 Z" id="Shape"></path>
                    </g>
                    <g id="Group" transform="translate(60.042692, 8.993822)" fill="#FFFFFF">
                        <path d="M2.15082523,9.55985977 C1.33507783,9.55985977 0.629380673,9.51997713 0.04198752,9.45258921 L0.04198752,0.604142896 C0.863524378,0.477268123 1.69371817,0.414732692 2.52499605,0.417041897 C5.88840649,0.417041897 7.43736361,2.07154921 7.43736361,4.76844122 C7.43736361,7.87928759 5.60777838,9.55985977 2.15082523,9.55985977 Z M2.64330005,1.55169955 C2.18934282,1.55169955 1.80279135,1.57920482 1.48227003,1.64521748 L1.48227003,8.37163198 C1.65559916,8.39913725 1.98850113,8.41151463 2.45621465,8.41151463 C4.65997069,8.41151463 5.91454342,7.15727418 5.91454342,4.80832387 C5.91454342,2.71379733 4.77965033,1.55169955 2.64330005,1.55169955 L2.64330005,1.55169955 Z M12.2644422,9.62724769 C10.3688269,9.62724769 9.14039106,8.2121014 9.14039106,6.29085808 C9.14039106,4.28847421 10.3949638,2.86095054 12.3717412,2.86095054 C14.239844,2.86095054 15.4957924,4.20870892 15.4957924,6.18496278 C15.4957924,8.2121014 14.2013264,9.62724769 12.2644422,9.62724769 Z M12.3194674,3.9144025 C11.278117,3.9144025 10.6109374,4.88808916 10.6109374,6.24960017 C10.6109374,7.58498117 11.2918732,8.55866784 12.3057111,8.55866784 C13.3195489,8.55866784 14.0004848,7.51759325 14.0004848,6.2220949 C14.0004848,4.9018418 13.3333052,3.9144025 12.3194674,3.9144025 Z M26.3054772,2.99435112 L24.2764259,9.48009448 L22.9544474,9.48009448 L22.1139387,6.66355453 C21.9049516,5.97460994 21.7309418,5.27554199 21.5925757,4.56902799 L21.5650631,4.56902799 C21.4591397,5.27591351 21.2582981,5.98417429 21.0450757,6.66355453 L20.1509175,9.48009448 L18.8151827,9.48009448 L16.9058111,2.99435112 L18.3873624,2.99435112 L19.1219478,6.07769221 C19.2952769,6.812083 19.4410935,7.50521588 19.5621487,8.15984138 L19.5896613,8.15984138 C19.6955847,7.61386171 19.8689138,6.93173094 20.123405,6.09144485 L21.0450757,2.99572638 L22.219862,2.99572638 L23.1016396,6.0254322 C23.3148619,6.75982298 23.488191,7.48046114 23.6230026,8.16121664 L23.6615202,8.16121664 C23.7550629,7.49421377 23.9022551,6.78595299 24.1017211,6.0254322 L24.889956,2.99572638 L26.3054772,2.99435112 L26.3054772,2.99435112 Z M33.7751372,9.48009448 L32.333479,9.48009448 L32.333479,5.75588052 C32.333479,4.60891064 31.8932781,4.03405043 31.0252568,4.03405043 C30.1709918,4.03405043 29.5835987,4.76844122 29.5835987,5.62247995 L29.5835987,9.48009448 L28.1419405,9.48009448 L28.1419405,4.84820651 C28.1419405,4.27472157 28.1281842,3.65997872 28.088291,2.99297585 L29.35662,2.99297585 L29.4240258,3.99416779 L29.463919,3.99416779 C29.8518461,3.30103491 30.6387053,2.86095054 31.5204829,2.86095054 C32.8823546,2.86095054 33.7765128,3.90202512 33.7765128,5.59634994 L33.7751372,9.48009448 L33.7751372,9.48009448 Z M37.7507021,9.48009448 L36.3076683,9.48009448 L36.3076683,0.0182805814 L37.7507021,0.0182805814 L37.7507021,9.48009448 Z M43.0069766,9.62724769 C41.1127369,9.62724769 39.8829254,8.2121014 39.8829254,6.29085808 C39.8829254,4.28847421 41.1374982,2.86095054 43.1129,2.86095054 C44.9823784,2.86095054 46.2369522,4.20870892 46.2369522,6.18496278 C46.2383268,8.2121014 44.9424852,9.62724769 43.0069766,9.62724769 Z M43.0606261,3.9144025 C42.0192757,3.9144025 41.3520961,4.88808916 41.3520961,6.24960017 C41.3520961,7.58498117 42.0344076,8.55866784 43.0454942,8.55866784 C44.0607077,8.55866784 44.74027,7.51759325 44.74027,6.2220949 C44.7416435,4.9018418 44.0758396,3.9144025 43.0606261,3.9144025 L43.0606261,3.9144025 Z M51.921046,9.48009448 L51.8164983,8.73332632 L51.7779807,8.73332632 C51.3377797,9.33431653 50.6953615,9.62724769 49.8809897,9.62724769 C48.718584,9.62724769 47.8932072,8.81309161 47.8932072,7.71838175 C47.8932072,6.11757486 49.2812159,5.28966614 51.684438,5.28966614 L51.684438,5.17001821 C51.684438,4.31597948 51.2318564,3.88827249 50.3376982,3.88827249 C49.6980312,3.88827249 49.136775,4.04917833 48.6429245,4.36961476 L48.3499157,3.42205811 C48.9496895,3.0479864 49.6980312,2.86095054 50.5770575,2.86095054 C52.2718311,2.86095054 53.1274718,3.75487191 53.1274718,5.54408992 L53.1274718,7.93292288 C53.1274718,8.58754837 53.1563599,9.09502066 53.2210145,9.48146974 L51.921046,9.48009448 L51.921046,9.48009448 Z M51.7229556,6.24960017 C50.1217246,6.24960017 49.3183578,6.63742452 49.3183578,7.5574759 C49.3183578,8.23823141 49.7324219,8.57104521 50.3074344,8.57104521 C51.0406441,8.57104521 51.7229556,8.0113129 51.7229556,7.25079211 L51.7229556,6.24960017 L51.7229556,6.24960017 Z M60.1280426,9.48009448 L60.0606368,8.4390199 L60.0207436,8.4390199 C59.6066796,9.22567071 58.9106118,9.62724769 57.9380428,9.62724769 C56.3739538,9.62724769 55.2156751,8.25198404 55.2156751,6.31698809 C55.2156751,4.28847421 56.4165983,2.85957528 58.0563469,2.85957528 C58.9243681,2.85957528 59.5392738,3.15250644 59.8859321,3.74111928 L59.9148203,3.74111928 L59.9148203,0.0182805814 L61.357854,0.0182805814 L61.357854,7.73213438 C61.357854,8.35925461 61.3729859,8.94649218 61.4115035,9.48009448 L60.1280426,9.48009448 Z M59.9148203,5.66373786 C59.9148203,4.75606385 59.3136708,3.98179042 58.396127,3.98179042 C57.327264,3.98179042 56.6738407,4.92934707 56.6738407,6.26335281 C56.6738407,7.57122854 57.3520253,8.46652517 58.3672388,8.46652517 C59.2737776,8.46652517 59.9148203,7.6784991 59.9148203,6.74469508 L59.9148203,5.66373786 Z M70.5071558,9.62724769 C68.6129161,9.62724769 67.3844803,8.2121014 67.3844803,6.29085808 C67.3844803,4.28847421 68.639053,2.86095054 70.6144548,2.86095054 C72.4839332,2.86095054 73.7385071,4.20870892 73.7385071,6.18496278 C73.7398816,8.2121014 72.4454157,9.62724769 70.5071558,9.62724769 Z M70.5608053,3.9144025 C69.5208305,3.9144025 68.853651,4.88808916 68.853651,6.24960017 C68.853651,7.58498117 69.5345868,8.55866784 70.547049,8.55866784 C71.5622625,8.55866784 72.2418312,7.51759325 72.2418312,6.2220949 C72.244574,4.9018418 71.5773944,3.9144025 70.5608053,3.9144025 Z M81.4915453,9.48009448 L80.0485116,9.48009448 L80.0485116,5.75588052 C80.0485116,4.60891064 79.6083106,4.03405043 78.7402894,4.03405043 C77.8860244,4.03405043 77.3000068,4.76844122 77.3000068,5.62247995 L77.3000068,9.48009448 L75.8569731,9.48009448 L75.8569731,4.84820651 C75.8569731,4.27472157 75.8432168,3.65997872 75.8033236,2.99297585 L77.0716526,2.99297585 L77.1390584,3.99416779 L77.1789516,3.99416779 C77.5655031,3.30103491 78.3537379,2.85957528 79.2341398,2.85957528 C80.5960115,2.85957528 81.4915453,3.90064986 81.4915453,5.59497467 L81.4915453,9.48009448 Z M91.1910983,4.07530834 L89.6049992,4.07530834 L89.6049992,7.2246621 C89.6049992,8.0264408 89.8828761,8.42664253 90.4441323,8.42664253 C90.6986235,8.42664253 90.9118458,8.39913725 91.0837993,8.35925461 L91.1236925,9.45396447 C90.8444401,9.56123504 90.4702692,9.61487032 90.005307,9.61487032 C88.8690383,9.61487032 88.189478,8.98775009 88.189478,7.3456853 L88.189478,4.07530834 L87.243046,4.07530834 L87.243046,2.99435112 L88.189478,2.99435112 L88.189478,1.80612332 L89.6049992,1.37841633 L89.6049992,2.99297585 L91.1910983,2.99297585 L91.1910983,4.07530834 L91.1910983,4.07530834 Z M98.8230824,9.48009448 L97.3827999,9.48009448 L97.3827999,5.78338579 C97.3827999,4.62266328 96.9439746,4.0354257 96.0745777,4.0354257 C95.3276117,4.0354257 94.6315439,4.54289798 94.6315439,5.57021993 L94.6315439,9.48009448 L93.1912614,9.48009448 L93.1912614,0.0182805814 L94.6315439,0.0182805814 L94.6315439,3.9144025 L94.6604321,3.9144025 C95.1143894,3.20751698 95.7719395,2.85957528 96.6110726,2.85957528 C97.9839493,2.85957528 98.8230824,3.92677987 98.8230824,5.62247995 L98.8230824,9.48009448 L98.8230824,9.48009448 Z M106.642152,6.58378924 L102.315802,6.58378924 C102.343314,7.81189967 103.156311,8.50503255 104.359985,8.50503255 C104.999652,8.50503255 105.588421,8.39776199 106.108408,8.19834876 L106.332636,9.1995407 C105.719106,9.46634184 104.996901,9.59974242 104.156392,9.59974242 C102.127341,9.59974242 100.926418,8.3179967 100.926418,6.33074073 C100.926418,4.34210949 102.156229,2.84719791 103.994068,2.84719791 C105.6517,2.84719791 106.691675,4.07530834 106.691675,5.930539 C106.700997,6.14947965 106.684374,6.36875404 106.642152,6.58378924 L106.642152,6.58378924 Z M105.320173,5.55646729 C105.320173,4.55527536 104.815318,3.84838984 103.893647,3.84838984 C103.065519,3.84838984 102.41072,4.56902799 102.317178,5.55646729 L105.320173,5.55646729 L105.320173,5.55646729 Z" id="Shape"></path>
                    </g>
                </g>
            </g>
        </g>
    </g>
</svg>