<?xml version="1.0" encoding="UTF-8"?>
<svg xmlns="http://www.w3.org/2000/svg" width="188" height="57" viewBox="0 0 188 57"><g><g><g><path fill="#fff" d="M185.374 49.499a5.267 5.267 0 0 1-5.274 5.267H7.5A5.275 5.275 0 0 1 2.22 49.5V7.494A5.282 5.282 0 0 1 7.501 2.22h172.597a5.275 5.275 0 0 1 5.274 5.274z"/></g><g><path d="M180.104 55.995H7.505A6.506 6.506 0 0 1 1 49.503V7.499A6.51 6.51 0 0 1 7.505 1h172.598a6.513 6.513 0 0 1 6.505 6.5v42.003c.003 3.581-2.92 6.492-6.504 6.492z"/><path fill="none" stroke="#000" stroke-miterlimit="20" d="M180.104 55.995v0H7.505A6.506 6.506 0 0 1 1 49.503V7.499A6.51 6.51 0 0 1 7.505 1h172.598a6.513 6.513 0 0 1 6.505 6.5v42.003c.003 3.581-2.92 6.492-6.504 6.492z"/></g><g><path fill="#fff" d="M39.843 9.55c-1.74.077-3.917 1.203-5.17 2.674-1.109 1.295-2.1 3.418-1.843 5.415 1.954.146 3.961-.986 5.216-2.466 1.202-1.503 2.025-3.548 1.797-5.623zm2.605 18.662c-.04-4.434 3.63-6.591 3.798-6.692-2.078-3.03-5.3-3.445-6.432-3.478-2.706-.285-5.33 1.62-6.71 1.62-1.405 0-3.528-1.592-5.815-1.545-2.944.045-5.698 1.75-7.209 4.397-3.117 5.397-.792 13.328 2.194 17.69 1.494 2.139 3.24 4.523 5.525 4.439 2.235-.09 3.07-1.424 5.768-1.424 2.673 0 3.457 1.424 5.787 1.37 2.4-.037 3.91-2.146 5.351-4.302 1.727-2.447 2.42-4.86 2.448-4.984-.055-.02-4.658-1.778-4.705-7.091z"/></g><g><g><path fill="#fff" d="M166.248 36.334c.021-.868-.172-1.616-.57-2.249-.508-.814-1.291-1.22-2.34-1.22-.96 0-1.742.396-2.338 1.192-.489.632-.78 1.392-.869 2.274zm2.7 2.101h-8.813c.033 1.305.46 2.303 1.278 2.991.743.614 1.703.922 2.883.922 1.304 0 2.495-.206 3.565-.623l.46 2.035c-1.25.545-2.727.816-4.432.816-2.05 0-3.66-.603-4.83-1.806-1.169-1.203-1.755-2.821-1.755-4.848 0-1.99.545-3.647 1.635-4.97 1.14-1.411 2.682-2.117 4.622-2.117 1.906 0 3.348.706 4.328 2.118.776 1.118 1.166 2.505 1.166 4.152a6.87 6.87 0 0 1-.108 1.33zm-13.944-4.81c-1.033 0-1.832.387-2.394 1.168-.488.688-.733 1.556-.733 2.605v6.923h-2.937v-9.038a92.535 92.535 0 0 0-.085-4.154h2.558l.107 2.524h.081c.312-.867.8-1.567 1.469-2.09a3.556 3.556 0 0 1 2.122-.707c.272 0 .517.019.735.053l.002 2.797a5.12 5.12 0 0 0-.925-.081zm-11.65 4.058c-.001-1.208-.263-2.244-.788-3.111-.615-1.048-1.497-1.571-2.639-1.571-1.176 0-2.078.523-2.693 1.57-.526.868-.788 1.922-.788 3.167 0 1.21.262 2.249.788 3.113.635 1.047 1.521 1.571 2.668 1.571 1.123 0 2.003-.535 2.64-1.597.54-.888.811-1.931.811-3.142zm3.039-.067c0 2.028-.581 3.693-1.74 4.995-1.213 1.34-2.826 2.008-4.837 2.008-1.941 0-3.484-.642-4.635-1.925-1.151-1.285-1.726-2.905-1.726-4.858 0-2.045.594-3.72 1.78-5.021 1.187-1.303 2.787-1.955 4.798-1.955 1.938 0 3.495.643 4.674 1.927 1.126 1.246 1.686 2.855 1.686 4.829zm-17.792-4.29v6.406c0 1.63.57 2.442 1.713 2.442.525 0 .96-.044 1.304-.136l.082 2.226c-.579.216-1.34.325-2.284.325-1.16 0-2.066-.353-2.72-1.06-.651-.707-.979-1.89-.979-3.557V33.32h-1.928v-2.2h1.928v-2.416l2.884-.87v3.286h3.236v2.205zm-6.484 5.862c0 1.558-.546 2.824-1.629 3.802-1.192 1.067-2.857 1.602-4.99 1.602-1.972 0-3.552-.38-4.745-1.14l.679-2.444c1.287.762 2.701 1.142 4.24 1.142 1.107 0 1.968-.25 2.582-.747.615-.498.926-1.163.926-1.994 0-.744-.257-1.367-.763-1.874-.508-.506-1.347-.978-2.527-1.411-3.208-1.195-4.813-2.943-4.813-5.242 0-1.502.567-2.731 1.699-3.692 1.131-.96 2.632-1.44 4.499-1.44 1.667 0 3.056.29 4.159.87l-.737 2.389c-1.038-.561-2.21-.842-3.52-.842-1.035 0-1.848.255-2.429.76-.488.453-.736 1.005-.736 1.66 0 .721.282 1.32.844 1.791.487.433 1.377.905 2.662 1.41 1.578.636 2.737 1.376 3.48 2.226.747.85 1.119 1.91 1.119 3.174zm-20.835-4.695c-.635-.867-1.485-1.301-2.554-1.301-.725 0-1.383.242-1.974.719-.59.48-.974 1.109-1.154 1.887-.09.362-.138.658-.138.892v2.2c0 .958.296 1.767.883 2.43.59.658 1.355.99 2.3.99 1.108 0 1.969-.427 2.583-1.275.617-.85.926-1.972.926-3.366 0-1.283-.29-2.341-.872-3.176zm2.03 8.39c-1.094 1.16-2.452 1.739-4.073 1.739-1.75 0-3.008-.623-3.772-1.872v6.924h-2.935V35.465c0-1.41-.037-2.855-.109-4.337h2.581l.164 2.092h.055c.978-1.576 2.463-2.364 4.458-2.364 1.557 0 2.857.614 3.9 1.845 1.039 1.234 1.562 2.853 1.562 4.862 0 2.245-.61 4.019-1.83 5.32zm-17.209-8.39c-.635-.867-1.487-1.301-2.556-1.301-.725 0-1.383.242-1.972.719-.59.48-.975 1.109-1.155 1.887-.081.29-.127.59-.137.892v2.2c0 .958.295 1.767.885 2.43.59.66 1.355.99 2.297.99 1.106 0 1.967-.427 2.583-1.275.617-.85.926-1.972.926-3.366 0-1.283-.29-2.341-.87-3.176zm3.859 3.07c0 2.245-.61 4.019-1.831 5.32-1.093 1.16-2.452 1.739-4.072 1.739-1.75 0-3.008-.623-3.772-1.872v6.924h-2.935V35.465c0-1.41-.037-2.855-.109-4.337h2.581l.164 2.092h.055c.979-1.576 2.464-2.364 4.458-2.364 1.558 0 2.859.614 3.9 1.845 1.039 1.234 1.56 2.853 1.56 4.862zm-20.489-.877l-1.547-4.775c-.164-.488-.472-1.637-.923-3.445h-.055c-.182.778-.472 1.926-.87 3.445l-1.521 4.775zm2.235 7.635l-1.712-5.376h-5.952l-1.63 5.376H59.37l5.898-18.3h3.642l5.924 18.3z"/></g></g><g><g><path fill="#fff" d="M166.358 15.548h-2.993c.093-.987.746-1.708 1.571-1.708.919 0 1.422.707 1.422 1.708zm1.322 1.028c.042-.216.059-.435.05-.654 0-1.855-1.039-3.083-2.693-3.083-1.835 0-3.063 1.495-3.063 3.483s1.199 3.27 3.225 3.27c.839 0 1.56-.134 2.172-.4l-.224-1.002c-.519.2-1.107.307-1.745.307-1.202 0-2.014-.693-2.041-1.921zm-7.82 2.896v-3.858c0-1.696-.837-2.763-2.208-2.763-.838 0-1.494.348-1.947 1.055h-.03V10.01h-1.437v9.462h1.438v-3.91c0-1.027.695-1.535 1.44-1.535.868 0 1.306.587 1.306 1.748v3.697zm-7.632-5.405v-1.082h-1.583V11.37l-1.412.428v1.188h-.944v1.081h.944v3.27c0 1.642.678 2.27 1.812 2.27.464 0 .837-.054 1.115-.161l-.04-1.095c-.17.04-.384.067-.637.067-.56 0-.838-.4-.838-1.202v-3.149zm-9.7 1.52c0-1.695-.895-2.736-2.254-2.736-.88 0-1.666.442-2.052 1.135h-.04l-.067-1.001h-1.267c.04.667.054 1.281.054 1.855v4.632h1.44v-3.858c0-.854.586-1.588 1.439-1.588.866 0 1.306.575 1.306 1.722v3.724h1.44zm-9.251.627c0 1.295-.678 2.336-1.69 2.336-1.01 0-1.689-.973-1.689-2.309 0-1.361.665-2.335 1.702-2.335 1.014 0 1.68.988 1.677 2.308zm1.506-.037c0-1.977-1.254-3.324-3.124-3.324-1.976 0-3.23 1.427-3.23 3.43 0 1.92 1.228 3.336 3.123 3.336 1.938 0 3.233-1.415 3.231-3.442zm-13.835.566c0 .935-.639 1.725-1.543 1.725-1.012 0-1.688-.897-1.688-2.208 0-1.337.652-2.286 1.717-2.286.915 0 1.514.776 1.514 1.685zm1.497 2.729a24.648 24.648 0 0 1-.053-1.748V10.01h-1.441v3.723h-.029c-.346-.589-.96-.882-1.827-.882-1.637 0-2.836 1.43-2.836 3.458 0 1.935 1.156 3.31 2.718 3.31.971 0 1.666-.402 2.08-1.188h.04l.067 1.04zm-9.69-3.23v1c0 .761-.679 1.32-1.409 1.32-.573 0-.985-.332-.985-1.013 0-.92.8-1.308 2.395-1.308zm.201 3.23l1.298.001c-.065-.386-.093-.894-.093-1.548v-2.39c0-1.788-.854-2.682-2.546-2.682-.878 0-1.625.187-2.223.56l.292.948c.493-.32 1.053-.481 1.692-.481.892 0 1.344.428 1.344 1.282v.12c-2.399 0-3.784.827-3.784 2.428 0 1.095.824 1.909 1.984 1.909.813 0 1.454-.293 1.894-.894h.038zm-8.858-5.566c1.012 0 1.676.988 1.674 2.308 0 1.295-.677 2.336-1.69 2.336-1.008 0-1.688-.973-1.688-2.309 0-1.361.665-2.335 1.704-2.335zm3.171 2.27c0-1.976-1.252-3.323-3.12-3.323-1.972 0-3.224 1.427-3.224 3.43 0 1.92 1.228 3.336 3.12 3.336 1.932 0 3.226-1.415 3.224-3.442zm-8.487-6.166H97.35v9.462h1.433zm-3.986 9.462l.002-3.884c0-1.694-.891-2.735-2.249-2.735-.878 0-1.663.44-2.05 1.133h-.039l-.067-1.001h-1.264c.04.667.053 1.281.053 1.855v4.632h1.437v-3.858c0-.854.586-1.588 1.437-1.588.865 0 1.304.575 1.304 1.722v3.724zm-7.46-6.486l-1.414.001-.788 3.025c-.199.76-.346 1.467-.44 2.133h-.038c-.135-.68-.308-1.4-.52-2.133l-.882-3.025h-1.173l-.921 3.091c-.254.84-.428 1.52-.533 2.066h-.028a43.455 43.455 0 0 0-.44-2.08l-.733-3.078h-1.48l1.907 6.476h1.334l.894-2.812c.213-.679.413-1.386.52-2.092h.027c.138.706.312 1.404.52 2.092l.84 2.812h1.32zM75.03 16.214c0 1.295-.68 2.336-1.69 2.336-1.011 0-1.69-.973-1.69-2.309 0-1.361.665-2.335 1.704-2.335 1.01 0 1.676.988 1.676 2.308zm1.485-.037c0-1.977-1.252-3.324-3.114-3.324-1.971 0-3.222 1.427-3.222 3.43 0 1.92 1.225 3.336 3.115 3.336 1.93 0 3.221-1.415 3.221-3.442zM63.68 11.543c2.132 0 3.264 1.163 3.264 3.257 0 2.349-1.252 3.603-3.45 3.603-.467 0-.8-.012-.973-.04v-6.726a5.86 5.86 0 0 1 1.159-.094zm4.787 3.217c0-2.697-1.547-4.351-4.906-4.351-.83-.003-1.66.06-2.48.187v8.848c.587.068 1.291.108 2.106.108 3.453 0 5.28-1.681 5.28-4.792z"/></g></g></g></g></svg>