<?xml version="1.0" encoding="UTF-8"?>
<svg xmlns="http://www.w3.org/2000/svg" width="118" height="35" viewBox="0 0 118 35"><g><g><g><path fill="none" stroke="#fff" stroke-miterlimit="20" d="M117.332 30.867a3.351 3.351 0 0 1-3.356 3.351H4.141A3.357 3.357 0 0 1 .78 30.867V4.137A3.361 3.361 0 0 1 4.14.78h109.835a3.357 3.357 0 0 1 3.357 3.356z"/></g><g><path fill="#fff" d="M24.718 5.44c-1.107.049-2.492.766-3.29 1.701-.705.825-1.336 2.176-1.173 3.447 1.244.093 2.521-.628 3.32-1.57.765-.956 1.288-2.257 1.143-3.578zm1.658 11.873c-.025-2.82 2.31-4.193 2.417-4.256-1.323-1.928-3.373-2.192-4.093-2.213-1.722-.181-3.393 1.03-4.27 1.03-.894 0-2.245-1.012-3.7-.983-1.874.03-3.627 1.114-4.588 2.797-1.984 3.434-.504 8.48 1.396 11.254.951 1.36 2.062 2.877 3.516 2.824 1.422-.058 1.954-.906 3.67-.906 1.701 0 2.2.906 3.683.871 1.527-.023 2.488-1.365 3.406-2.736 1.098-1.557 1.54-3.092 1.557-3.171-.035-.012-2.964-1.13-2.994-4.51z"/></g><g><g><path fill="#fff" d="M105.143 22.489c.013-.554-.109-1.031-.361-1.435-.322-.52-.818-.779-1.483-.779-.608 0-1.104.253-1.482.761-.31.403-.494.888-.55 1.451zm1.712 1.33h-5.592c.021.83.292 1.465.812 1.903.47.39 1.08.586 1.828.586.828 0 1.584-.131 2.263-.396l.292 1.294c-.794.347-1.731.519-2.812.519-1.301 0-2.322-.383-3.066-1.148-.74-.766-1.112-1.795-1.112-3.084 0-1.266.345-2.32 1.036-3.161.724-.898 1.703-1.347 2.933-1.347 1.21 0 2.125.449 2.746 1.347.493.711.74 1.593.74 2.64.005.284-.018.568-.068.847zm-8.857-3.059c-.657 0-1.164.247-1.522.744-.31.438-.465.99-.465 1.659v4.406h-1.867v-5.753a58.993 58.993 0 0 0-.054-2.644h1.626l.068 1.607h.052c.197-.553.507-.998.933-1.331.39-.292.862-.45 1.349-.45.172 0 .328.012.466.034l.002 1.78a3.248 3.248 0 0 0-.588-.052zm-7.416 2.584c0-.77-.166-1.43-.5-1.982-.39-.666-.951-1-1.677-1-.747 0-1.32.334-1.711 1-.335.553-.501 1.224-.501 2.017 0 .77.166 1.432.5 1.982.404.667.967 1 1.696 1 .714 0 1.273-.34 1.678-1.017.343-.565.515-1.23.515-2zm1.935-.043c0 1.29-.37 2.35-1.107 3.18-.77.853-1.797 1.278-3.076 1.278-1.234 0-2.215-.409-2.947-1.225-.732-.818-1.098-1.85-1.098-3.093 0-1.301.378-2.367 1.132-3.196.755-.83 1.773-1.245 3.052-1.245 1.232 0 2.222.41 2.972 1.227.716.793 1.072 1.817 1.072 3.074zM81.19 20.57v4.078c0 1.037.362 1.554 1.087 1.554.333 0 .61-.028.828-.087l.051 1.417c-.367.138-.85.207-1.449.207-.735 0-1.31-.225-1.725-.675-.413-.45-.621-1.203-.621-2.264v-4.233h-1.223v-1.4h1.223V17.63l1.83-.553v2.09h2.052v1.404zm-4.123 3.731c0 .992-.347 1.798-1.036 2.42-.758.68-1.816 1.02-3.173 1.02-1.254 0-2.258-.242-3.017-.726l.432-1.555a5.193 5.193 0 0 0 2.696.726c.704 0 1.251-.159 1.642-.475.39-.317.589-.74.589-1.269 0-.473-.164-.87-.485-1.193-.323-.322-.857-.622-1.607-.898-2.04-.76-3.06-1.873-3.06-3.336 0-.956.36-1.738 1.08-2.35.719-.61 1.673-.916 2.86-.916 1.06 0 1.944.185 2.645.553l-.469 1.521c-.66-.357-1.405-.535-2.238-.535-.658 0-1.175.161-1.544.484-.31.287-.469.638-.469 1.055 0 .46.18.841.537 1.14.31.276.876.576 1.693.898 1.003.405 1.74.875 2.212 1.416.476.541.712 1.216.712 2.02zm-13.259-2.99c-.403-.552-.944-.828-1.623-.828-.46 0-.879.154-1.254.457a2.122 2.122 0 0 0-.734 1.202c-.057.231-.087.42-.087.568v1.401c0 .61.188 1.126.56 1.548.375.419.862.63 1.463.63.703 0 1.25-.272 1.641-.812.392-.541.588-1.255.588-2.143 0-.817-.184-1.491-.554-2.022zm1.284 5.334c-.695.738-1.557 1.106-2.587 1.106-1.112 0-1.91-.396-2.396-1.19v4.402h-1.864V21.93c0-.896-.024-1.815-.07-2.758h1.64l.104 1.33h.035c.621-1.002 1.564-1.503 2.831-1.503.99 0 1.815.39 2.478 1.173.66.785.992 1.815.992 3.092 0 1.427-.388 2.555-1.163 3.383zm-10.944-5.333c-.403-.553-.945-.83-1.625-.83-.46 0-.879.155-1.252.458-.375.307-.62.707-.735 1.202-.051.185-.08.376-.086.568v1.401c0 .61.187 1.126.562 1.548.374.42.861.63 1.46.63.703 0 1.25-.272 1.641-.812.392-.541.588-1.255.588-2.143 0-.817-.183-1.491-.553-2.022zm2.455 1.95c0 1.427-.388 2.555-1.165 3.383-.695.738-1.559 1.106-2.589 1.106-1.113 0-1.913-.396-2.399-1.19v4.402h-1.866V21.93c0-.896-.024-1.815-.07-2.758h1.642l.104 1.33h.036c.622-1.002 1.566-1.503 2.834-1.503.991 0 1.818.39 2.48 1.173.661.785.993 1.815.993 3.092zm-13.033-.56l-.985-3.036c-.104-.31-.3-1.04-.587-2.19h-.035c-.116.495-.3 1.225-.554 2.19l-.968 3.036zm1.417 4.866l-1.089-3.42h-3.785l-1.037 3.42H37.14l3.751-11.647h2.316l3.768 11.647z"/></g></g><g><g><path fill="#fff" d="M105.245 9.244h-1.92c.06-.622.478-1.077 1.008-1.077.59 0 .912.446.912 1.077zm.831.664c.027-.137.038-.276.032-.416 0-1.18-.662-1.962-1.717-1.962-1.17 0-1.952.952-1.952 2.217 0 1.265.764 2.08 2.056 2.08.534 0 .994-.085 1.384-.254l-.142-.638c-.331.127-.706.196-1.113.196-.766 0-1.283-.441-1.3-1.223zm-4.975 1.843V9.296c0-1.079-.534-1.758-1.408-1.758-.534 0-.952.222-1.241.671h-.019V5.73h-.916v6.021h.916V9.263c0-.654.443-.977.919-.977.553 0 .832.374.832 1.113v2.352zm-4.857-3.44v-.688h-1.01V6.596l-.9.272v.756h-.602v.688h.602v2.08c0 1.046.432 1.445 1.155 1.445.296 0 .534-.034.712-.102l-.025-.697c-.11.025-.245.043-.407.043-.358 0-.534-.255-.534-.765V8.312zm-6.172.968c0-1.078-.57-1.74-1.437-1.74-.56 0-1.062.28-1.308.721h-.025l-.043-.637h-.807c.025.424.034.816.034 1.18v2.948h.918V9.296c0-.543.373-1.01.917-1.01.552 0 .832.365.832 1.095v2.37h.919zm-5.887.394c0 .822-.432 1.482-1.078 1.482-.644 0-1.078-.618-1.078-1.465 0-.863.425-1.48 1.087-1.48.647 0 1.071.626 1.07 1.463zm.963-.024c0-1.254-.8-2.11-1.993-2.11-1.26 0-2.06.906-2.06 2.178 0 1.22.783 2.118 1.991 2.118 1.237 0 2.063-.899 2.062-2.186zm-8.807.368c0 .596-.408 1.1-.985 1.1-.646 0-1.078-.573-1.078-1.408 0-.852.416-1.457 1.096-1.457.584 0 .967.495.967 1.074zm.952 1.734c-.024-.34-.034-.713-.034-1.112V5.73h-.918V8.1h-.018c-.221-.375-.612-.562-1.165-.562-1.043 0-1.807.91-1.807 2.2 0 1.232.737 2.107 1.732 2.107.619 0 1.062-.256 1.325-.756h.026l.043.662zm-6.165-2.056v.633c0 .48-.434.835-.9.835-.367 0-.63-.21-.63-.64 0-.582.51-.828 1.53-.828zm.126 2.046l.827.001a6.205 6.205 0 0 1-.06-.983V9.242c0-1.135-.544-1.703-1.622-1.703-.56 0-1.036.119-1.418.356l.187.602a1.935 1.935 0 0 1 1.078-.306c.57 0 .857.272.857.814v.076c-1.529 0-2.412.526-2.412 1.542 0 .695.525 1.212 1.265 1.212.518 0 .927-.186 1.207-.568h.024zM65.61 8.21c.644 0 1.065.627 1.064 1.464 0 .822-.43 1.482-1.073 1.482-.64 0-1.073-.618-1.073-1.465 0-.863.423-1.48 1.082-1.48zm2.037 1.44c0-1.254-.8-2.11-1.993-2.11-1.26 0-2.06.906-2.06 2.178 0 1.22.784 2.118 1.992 2.118 1.235 0 2.062-.899 2.06-2.186zm-5.41-3.919h-.919v6.021h.918zm-2.53 6.021V9.28c0-1.079-.569-1.741-1.435-1.741-.561 0-1.062.28-1.309.721h-.025l-.043-.637h-.807c.025.424.034.816.034 1.18v2.948h.917V9.296c0-.543.374-1.01.918-1.01.552 0 .832.365.832 1.095v2.37zm-4.754-4.127h-.9l-.502 1.929c-.127.484-.22.934-.28 1.359h-.025a16.155 16.155 0 0 0-.332-1.36l-.56-1.927h-.748l-.587 1.97c-.162.534-.272.969-.34 1.316h-.017c-.077-.417-.17-.858-.28-1.325l-.468-1.962h-.942l1.215 4.127h.85l.569-1.792c.135-.433.263-.883.33-1.333h.018c.088.45.199.894.332 1.333l.535 1.792h.84zm-7.84 2.049c0 .822-.432 1.482-1.074 1.482-.642 0-1.073-.618-1.073-1.465 0-.863.422-1.48 1.082-1.48.642 0 1.065.626 1.065 1.463zm.961-.024c0-1.254-.799-2.11-1.988-2.11-1.258 0-2.056.906-2.056 2.178 0 1.22.782 2.118 1.988 2.118 1.232 0 2.056-.899 2.056-2.186zm-8.179-2.943c1.36 0 2.082.738 2.082 2.067 0 1.492-.798 2.288-2.2 2.288-.298 0-.51-.008-.62-.025v-4.27c.204-.043.45-.06.738-.06zm3.051 2.047c0-1.716-.986-2.77-3.126-2.77a10.164 10.164 0 0 0-1.58.12v5.63c.374.044.823.069 1.342.069 2.2 0 3.364-1.07 3.364-3.05z"/></g></g></g></g></svg>