<?xml version="1.0" encoding="UTF-8"?>
<svg width="25px" height="25px" viewBox="0 0 25 25" version="1.1" xmlns="http://www.w3.org/2000/svg" xmlns:xlink="http://www.w3.org/1999/xlink">
    <!-- Generator: Sketch 57.1 (83088) - https://sketch.com -->
    <title>apple_header</title>
    <desc>Created with Sketch.</desc>
    <g id="Symbols" stroke="none" stroke-width="1" fill="none" fill-rule="evenodd">
        <g id="Desktop_header" transform="translate(-1414.000000, -38.000000)">
            <g id="header">
                <g id="apple_header" transform="translate(1414.000000, 38.000000)">
                    <rect id="Rectangle" fill="#4D4D4D" x="0" y="0" width="25" height="25" rx="12.5"></rect>
                    <g id="company" transform="translate(8.750000, 6.875000)" fill="#FFFFFF" fill-rule="nonzero">
                        <path d="M2.54983521,9.375 C1.15455322,9.36696167 0.000402832031,6.51871948 0.000402832031,5.06817627 C0.000402832031,2.69871826 1.77789917,2.17998047 2.46293335,2.17998047 C2.77164917,2.17998047 3.10129395,2.3012146 3.39204712,2.40849609 C3.59536743,2.4833313 3.80564575,2.5605835 3.92259521,2.5605835 C3.99259644,2.5605835 4.15755615,2.49486694 4.30319824,2.43720703 C4.61380005,2.31355591 5.00029907,2.15987549 5.45037231,2.15987549 C5.45117798,2.15987549 5.4522583,2.15987549 5.45304565,2.15987549 C5.78911743,2.15987549 6.80809937,2.23363037 7.42071533,3.15362549 L7.56421509,3.3692688 L7.35769043,3.52510986 C7.06265259,3.74772949 6.52432251,4.1538208 6.52432251,4.95822144 C6.52432251,5.9109375 7.13399048,6.27733154 7.42688599,6.45355225 C7.55617676,6.53133545 7.69000854,6.61153564 7.69000854,6.78695068 C7.69000854,6.90148315 6.77590942,9.36079102 5.44848633,9.36079102 C5.12367554,9.36079102 4.89407959,9.26315918 4.69156494,9.17706299 C4.48665161,9.08988647 4.30988159,9.01479492 4.01779175,9.01479492 C3.86973267,9.01479492 3.68250732,9.08479614 3.48429565,9.15910034 C3.21342773,9.26019287 2.90683594,9.375 2.55895386,9.375 L2.54983521,9.375 Z" id="Path"></path>
                        <path d="M5.59099731,0 C5.62556763,1.24650879 4.73411865,2.1112793 3.84371338,2.05704346 C3.69699097,1.06228638 4.73400879,0 5.59099731,0 Z" id="Path"></path>
                    </g>
                </g>
            </g>
        </g>
    </g>
</svg>