<?xml version="1.0" encoding="UTF-8"?>
<svg xmlns="http://www.w3.org/2000/svg" width="119" height="37" viewBox="0 0 119 37"><defs><linearGradient id="33f8e" x1="22.77" x2="3.13" y1="20.59" y2="40.23" gradientUnits="userSpaceOnUse"><stop offset="0" stop-color="#ff3a44"/><stop offset="1" stop-color="#c31162"/></linearGradient><clipPath id="33f8a"><path d="M1.25 35.903h116.667V1.21H1.25z"/></clipPath><clipPath id="33f8b"><path d="M10.35 7.853c-.251.266-.4.678-.4 1.212v19.092c0 .535.149.947.4 1.212l.064.063 10.694-10.695v-.252L10.414 7.79z"/></clipPath><clipPath id="33f8c"><path d="M21.11 18.485v.253l3.565 3.566.081-.046 4.223-2.4c1.207-.685 1.207-1.807 0-2.492l-4.223-2.4-.08-.046z"/></clipPath><clipPath id="33f8d"><path d="M10.35 29.368c.398.421 1.054.473 1.794.053l12.61-7.165-3.646-3.646z"/></clipPath><clipPath id="33f8f"><path d="M10.35 7.853L21.108 18.61l3.646-3.646L12.144 7.8c-.347-.197-.675-.29-.968-.29-.33 0-.615.12-.826.343"/></clipPath></defs><g><g><g><g><path fill="none" stroke="#fff" stroke-miterlimit="20" d="M113.56 1.34v0H5.656A4.329 4.329 0 0 0 1.34 5.656v25.897a4.329 4.329 0 0 0 4.316 4.316H113.56a4.329 4.329 0 0 0 4.316-4.316V5.656a4.329 4.329 0 0 0-4.316-4.316"/></g><g><path fill="#fff" d="M42.277 10.186c0 .723-.214 1.299-.643 1.729-.488.51-1.123.766-1.903.766a2.605 2.605 0 0 1-1.906-.777c-.524-.519-.785-1.162-.785-1.928 0-.767.261-1.41.785-1.928a2.605 2.605 0 0 1 1.906-.778c.37 0 .726.073 1.063.217.337.145.608.338.81.58l-.455.455c-.343-.41-.815-.615-1.418-.615-.546 0-1.017.191-1.414.575-.399.384-.597.881-.597 1.494 0 .612.198 1.11.597 1.494.397.383.868.574 1.414.574.578 0 1.06-.192 1.446-.578.25-.251.396-.6.434-1.05h-1.88v-.621h2.51c.024.135.036.265.036.39"/></g><g><path fill="none" stroke="#fff" stroke-miterlimit="20" stroke-width=".2" d="M42.277 10.186c0 .723-.214 1.299-.643 1.729-.488.51-1.123.766-1.903.766a2.605 2.605 0 0 1-1.906-.777c-.524-.519-.785-1.162-.785-1.928 0-.767.261-1.41.785-1.928a2.605 2.605 0 0 1 1.906-.778c.37 0 .726.073 1.063.217.337.145.608.338.81.58l-.455.455c-.343-.41-.815-.615-1.418-.615-.546 0-1.017.191-1.414.575-.399.384-.597.881-.597 1.494 0 .612.198 1.11.597 1.494.397.383.868.574 1.414.574.578 0 1.06-.192 1.446-.578.25-.251.396-.6.434-1.05h-1.88v0-.621 0h2.51c.024.135.036.265.036.39z"/></g><g><path fill="#fff" d="M46.254 8.026h-2.359V9.67h2.127v.622h-2.127v1.642h2.359v.636H43.23V7.39h3.024z"/></g><g><path fill="none" stroke="#fff" stroke-miterlimit="20" stroke-width=".2" d="M46.254 8.026v0h-2.359V9.67h2.127v.622h-2.127v1.642h2.359v.636H43.23v0V7.39v0h3.024v0z"/></g><g><path fill="#fff" d="M49.063 12.57h-.666V8.025H46.95V7.39h3.56v.636h-1.447z"/></g><g><path fill="none" stroke="#fff" stroke-miterlimit="20" stroke-width=".2" d="M49.063 12.57v0h-.666v0-4.544 0H46.95v0-.636 0h3.56v.636h-1.447v0z"/></g><g/><g clip-path="url(#33f8a)"><path fill="#fff" d="M53.08 12.57h.665V7.39h-.665z"/></g><g clip-path="url(#33f8a)"><path fill="none" stroke="#fff" stroke-miterlimit="20" stroke-width=".2" d="M53.08 12.57v0h.665v0-5.18 0h-.665v0z"/></g><g clip-path="url(#33f8a)"><path fill="#fff" d="M56.702 12.57h-.666V8.025H54.59V7.39h3.559v.636h-1.447z"/></g><g clip-path="url(#33f8a)"><path fill="none" stroke="#fff" stroke-miterlimit="20" stroke-width=".2" d="M56.702 12.57v0h-.666v0-4.544 0H54.59v0-.636 0h3.559v.636h-1.447v0z"/></g><g clip-path="url(#33f8a)"><path fill="#fff" d="M64.88 11.896c-.509.524-1.142.785-1.899.785-.757 0-1.39-.261-1.898-.785-.51-.523-.763-1.163-.763-1.92 0-.757.254-1.398.763-1.92.508-.524 1.141-.786 1.898-.786.753 0 1.385.263 1.896.789.51.525.766 1.164.766 1.917 0 .757-.254 1.397-.762 1.92m-3.307-.442c.384.387.852.58 1.407.58s1.024-.193 1.407-.58c.384-.387.576-.882.576-1.483 0-.601-.192-1.096-.576-1.484a1.903 1.903 0 0 0-1.407-.58c-.555 0-1.023.193-1.407.58-.382.388-.575.883-.575 1.484s.193 1.096.575 1.483"/></g><g clip-path="url(#33f8a)"><path fill="none" stroke="#fff" stroke-miterlimit="20" stroke-width=".2" d="M64.88 11.896c-.509.524-1.142.785-1.899.785-.757 0-1.39-.261-1.898-.785-.51-.523-.763-1.163-.763-1.92 0-.757.254-1.398.763-1.92.508-.524 1.141-.786 1.898-.786.753 0 1.385.263 1.896.789.51.525.766 1.164.766 1.917 0 .757-.254 1.397-.762 1.92zm-3.306-.442c.384.387.852.58 1.407.58s1.024-.193 1.407-.58c.384-.387.576-.882.576-1.483 0-.601-.192-1.096-.576-1.484a1.903 1.903 0 0 0-1.407-.58c-.555 0-1.023.193-1.407.58-.382.388-.575.883-.575 1.484s.193 1.096.575 1.483z"/></g><g clip-path="url(#33f8a)"><path fill="#fff" d="M66.58 12.57V7.39h.81l2.517 4.029h.029l-.029-.998V7.39h.666v5.18h-.694l-2.634-4.225h-.029l.029.998v3.226z"/></g><g clip-path="url(#33f8a)"><path fill="none" stroke="#fff" stroke-miterlimit="20" stroke-width=".2" d="M66.58 12.57v0-5.18 0h.81v0l2.517 4.029v0h.029v0l-.029-.998v0V7.39v0h.666v5.18h-.694v0l-2.634-4.225v0h-.029v0l.029.998v3.226z"/></g><g clip-path="url(#33f8a)"><path fill="#fff" d="M60.159 20.12c2.03 0 3.685 1.545 3.685 3.672 0 2.114-1.655 3.672-3.685 3.672-2.031 0-3.686-1.558-3.686-3.672 0-2.127 1.655-3.671 3.686-3.671zm0 5.897c1.112 0 2.072-.918 2.072-2.225 0-1.321-.96-2.225-2.072-2.225-1.113 0-2.072.904-2.072 2.225 0 1.307.959 2.225 2.072 2.225zm-8.04-5.896c2.03 0 3.685 1.544 3.685 3.67 0 2.115-1.655 3.673-3.685 3.673-2.03 0-3.685-1.558-3.685-3.672 0-2.127 1.654-3.671 3.685-3.671zm0 5.896c1.113 0 2.072-.918 2.072-2.225 0-1.321-.96-2.225-2.072-2.225-1.113 0-2.072.904-2.072 2.225 0 1.307.96 2.225 2.072 2.225zm-4.32-4.77c.055.278.083.612.083.974 0 1.168-.32 2.614-1.35 3.643-1 1.044-2.28 1.6-3.977 1.6-3.143 0-5.785-2.56-5.785-5.702 0-3.143 2.642-5.702 5.785-5.702 1.74 0 2.977.681 3.908 1.571l-1.098 1.099a3.973 3.973 0 0 0-2.81-1.112c-2.294 0-4.088 1.849-4.088 4.144s1.794 4.144 4.088 4.144c1.489 0 2.337-.598 2.88-1.14.444-.445.736-1.085.848-1.961h-3.728v-1.558zm34.035 1.627l-4.91 2.03c.376.738.96 1.113 1.78 1.113.821 0 1.391-.403 1.809-1.015l1.251.834c-.403.598-1.377 1.628-3.06 1.628-2.086 0-3.643-1.614-3.643-3.672 0-2.183 1.571-3.671 3.463-3.671 1.905 0 2.837 1.516 3.143 2.336zm-1.892-.556c-.18-.46-.723-.779-1.363-.779-.82 0-1.96.723-1.919 2.142zM72.67 16.45h1.613V27.24h-1.613zm-2.642 3.893h1.53v6.592c0 2.712-1.6 3.825-3.491 3.825-1.78 0-2.851-1.196-3.255-2.17l1.405-.584c.25.598.862 1.307 1.85 1.307 1.21 0 1.96-.75 1.96-2.156v-.528h-.055c-.362.445-1.057.835-1.933.835-1.835 0-3.519-1.6-3.519-3.658 0-2.072 1.684-3.685 3.519-3.685.876 0 1.571.39 1.933.82h.056zm-1.85 5.674c1.098 0 1.96-.932 1.96-2.211 0-1.293-.862-2.239-1.96-2.239-1.113 0-2.044.946-2.044 2.239 0 1.28.931 2.211 2.044 2.211zm21.046-9.567c1.786 0 3.54 1.292 3.54 3.351s-1.754 3.351-3.54 3.351h-2.249v4.09h-1.61V16.45zm.042 5.2c1.205 0 1.888-1.013 1.888-1.849 0-.852-.683-1.85-1.888-1.85h-2.29v3.7zm9.96-1.549c1.849 0 3.281 1.07 3.281 2.989v4.143h-1.557v-.835h-.056c-.375.57-.974 1.057-2.058 1.057-1.418 0-2.684-.931-2.684-2.377 0-1.585 1.572-2.433 3.115-2.433.765 0 1.39.25 1.683.417v-.111c-.014-.89-.863-1.39-1.697-1.39-.598 0-1.168.194-1.474.792l-1.432-.598c.5-1.14 1.71-1.654 2.878-1.654zm-.2 5.914c.93 0 1.791-.708 1.916-1.708-.43-.208-.764-.36-1.472-.36-.791 0-1.707.319-1.707 1.152 0 .652.735.916 1.263.916zm10.927-5.678l-4.43 10.166h-1.68l1.639-3.634-2.874-6.532h1.735l1.917 4.674h.055l1.846-4.674zm-16.3-3.887h1.61V27.24h-1.61z"/></g></g><g><g><path fill="#25d9f8" d="M10.35 7.853c-.251.266-.4.678-.4 1.212v19.092c0 .535.149.947.4 1.212l.064.063 10.694-10.695v-.252L10.414 7.79z"/></g><g clip-path="url(#33f8b)"><path fill="#25d9f8" d="M10.35 7.853c-.251.266-.4.678-.4 1.212v19.092c0 .535.149.947.4 1.212l.064.063 10.694-10.695v-.252L10.414 7.79z"/></g></g><g><g><path fill="#ff9100" d="M21.11 18.485v.253l3.565 3.566.081-.046 4.223-2.4c1.207-.685 1.207-1.807 0-2.492l-4.223-2.4-.08-.046z"/></g><g clip-path="url(#33f8c)"/></g><g><g/><g clip-path="url(#33f8d)"><path fill="url(#33f8e)" d="M10.35 29.368c.398.421 1.054.473 1.794.053l12.61-7.165-3.646-3.646z"/></g></g><g><g><path fill="#7fe881" d="M10.35 7.853L21.108 18.61l3.646-3.646L12.144 7.8c-.347-.197-.675-.29-.968-.29-.33 0-.615.12-.826.343"/></g><g clip-path="url(#33f8f)"/></g><g><g><path d="M24.674 22.17l-12.53 7.12c-.701.398-1.328.37-1.73.009l-.064.064.064.062c.402.362 1.029.39 1.73-.01l12.61-7.165z"/></g><g><path d="M10.35 29.243c-.252-.266-.4-.678-.4-1.213v.126c0 .535.148.947.4 1.213l.064-.065z"/></g><g><path d="M28.974 19.73l-4.304 2.445.08.08 4.224-2.4c.603-.342.905-.794.905-1.245-.05.408-.358.809-.905 1.12"/></g><g><path fill="#fff" d="M12.143 7.927l16.834 9.564c.548.311.854.711.905 1.12 0-.451-.301-.903-.905-1.246L12.143 7.801c-1.206-.686-2.193-.116-2.193 1.265v.127c0-1.382.987-1.951 2.193-1.266"/></g></g></g></g></svg>