<?xml version="1.0" encoding="UTF-8"?>
<svg xmlns="http://www.w3.org/2000/svg" width="184" height="55" viewBox="0 0 184 55"><defs><linearGradient id="a471e" x1="34.22" x2="3.34" y1="30.78" y2="61.65" gradientUnits="userSpaceOnUse"><stop offset="0" stop-color="#ff3a44"/><stop offset="1" stop-color="#c31162"/></linearGradient><clipPath id="a471a"><path d="M.39 54.858h183.333V.34H.39z"/></clipPath><clipPath id="a471b"><path d="M14.698 10.768c-.394.418-.628 1.067-.628 1.906v30c0 .842.234 1.49.628 1.906l.1.099 16.805-16.806v-.397L14.8 10.67z"/></clipPath><clipPath id="a471c"><path d="M31.6 27.473v.396l5.602 5.605.128-.073 6.636-3.77c1.897-1.078 1.897-2.84 0-3.918l-6.636-3.771-.127-.072z"/></clipPath><clipPath id="a471d"><path d="M14.69 44.576c.625.661 1.657.743 2.819.083L37.325 33.4l-5.73-5.729z"/></clipPath><clipPath id="a471f"><path d="M14.69 10.759l16.906 16.906 5.73-5.73-19.817-11.26c-.545-.309-1.06-.455-1.52-.455-.52 0-.967.188-1.299.539"/></clipPath></defs><g><g><g><g><path d="M176.885 54.8H7.322C3.592 54.8.54 51.748.54 48.018V7.322C.54 3.592 3.593.54 7.322.54h169.563c3.73 0 6.783 3.052 6.783 6.782v40.696c0 3.73-3.053 6.782-6.783 6.782"/></g><g><path fill="#a6a6a6" d="M176.875 1.625a5.703 5.703 0 0 1 5.697 5.697v40.687a5.703 5.703 0 0 1-5.697 5.696H7.322a5.703 5.703 0 0 1-5.697-5.696V7.322a5.703 5.703 0 0 1 5.697-5.697h169.553m.01-1.085H7.322C3.592.54.54 3.592.54 7.323v40.695c0 3.73 3.053 6.782 6.782 6.782h169.563c3.73 0 6.783-3.052 6.783-6.782V7.323c0-3.731-3.053-6.783-6.783-6.783"/></g><g><path fill="#fff" d="M64.86 14.432c0 1.137-.337 2.042-1.011 2.717-.766.802-1.764 1.204-2.99 1.204-1.176 0-2.174-.407-2.995-1.221-.823-.815-1.234-1.825-1.234-3.03 0-1.206.41-2.215 1.234-3.03.82-.814 1.82-1.222 2.995-1.222.583 0 1.14.114 1.67.341.53.228.955.53 1.273.91l-.715.716c-.54-.644-1.281-.966-2.228-.966-.858 0-1.598.3-2.223.904-.626.602-.938 1.384-.938 2.347 0 .962.312 1.744.938 2.348a3.092 3.092 0 0 0 2.223.903c.909 0 1.666-.303 2.273-.909.393-.395.621-.944.682-1.649h-2.955v-.977h3.943c.039.212.057.417.057.614"/></g><g><path fill="none" stroke="#fff" stroke-miterlimit="20" stroke-width=".2" d="M64.86 14.432c0 1.137-.337 2.042-1.011 2.717-.766.802-1.764 1.204-2.99 1.204-1.176 0-2.174-.407-2.995-1.221-.823-.815-1.234-1.825-1.234-3.03 0-1.206.41-2.215 1.234-3.03.82-.814 1.82-1.222 2.995-1.222.583 0 1.14.114 1.67.341.53.228.955.53 1.273.91l-.715.716c-.54-.644-1.281-.966-2.228-.966-.858 0-1.598.3-2.223.904-.626.602-.938 1.384-.938 2.347 0 .962.312 1.744.938 2.348a3.092 3.092 0 0 0 2.223.903c.909 0 1.666-.303 2.273-.909.393-.395.621-.944.682-1.649h-2.955v0-.977 0h3.943c.039.212.057.417.057.614z"/></g><g><path fill="#fff" d="M71.112 11.03h-3.707v2.58h3.342v.978h-3.342v2.58h3.707v1.001H66.36V10.03h4.752z"/></g><g><path fill="none" stroke="#fff" stroke-miterlimit="20" stroke-width=".2" d="M71.112 11.03v0h-3.707v2.58h3.342v.978h-3.342v2.58h3.707v1.001H66.36v0-8.139 0h4.752v0z"/></g><g><path fill="#fff" d="M75.52 18.169h-1.047V11.03H72.2v-1h5.593v1H75.52z"/></g><g><path fill="none" stroke="#fff" stroke-miterlimit="20" stroke-width=".2" d="M75.52 18.169v0h-1.047v0-7.139 0H72.2v0-1 0h5.593v1H75.52v0z"/></g><g/><g clip-path="url(#a471a)"><path fill="#fff" d="M81.84 18.169h1.045V10.03H81.84z"/></g><g clip-path="url(#a471a)"><path fill="none" stroke="#fff" stroke-miterlimit="20" stroke-width=".2" d="M81.84 18.169v0h1.045v0-8.139 0H81.84v0z"/></g><g clip-path="url(#a471a)"><path fill="#fff" d="M87.53 18.169h-1.047V11.03H84.21v-1h5.593v1h-2.274z"/></g><g clip-path="url(#a471a)"><path fill="none" stroke="#fff" stroke-miterlimit="20" stroke-width=".2" d="M87.53 18.169v0h-1.047v0-7.139 0H84.21v0-1 0h5.593v1h-2.274v0z"/></g><g clip-path="url(#a471a)"><path fill="#fff" d="M100.387 17.12c-.801.822-1.795 1.233-2.985 1.233s-2.184-.41-2.984-1.233c-.8-.822-1.198-1.828-1.198-3.018 0-1.19.399-2.196 1.198-3.018.8-.822 1.794-1.234 2.984-1.234 1.183 0 2.175.413 2.98 1.24.802.825 1.203 1.83 1.203 3.012 0 1.19-.4 2.196-1.198 3.018m-5.196-.682c.603.61 1.34.915 2.21.915.873 0 1.61-.305 2.212-.915.603-.61.905-1.389.905-2.336 0-.947-.302-1.726-.905-2.337-.602-.61-1.34-.914-2.211-.914-.872 0-1.608.305-2.211.914-.601.61-.903 1.39-.903 2.337 0 .947.302 1.726.903 2.336"/></g><g clip-path="url(#a471a)"><path fill="none" stroke="#fff" stroke-miterlimit="20" stroke-width=".2" d="M100.387 17.12c-.801.822-1.795 1.233-2.985 1.233s-2.184-.41-2.984-1.233c-.8-.822-1.198-1.828-1.198-3.018 0-1.19.399-2.196 1.198-3.018.8-.822 1.794-1.234 2.984-1.234 1.183 0 2.175.413 2.98 1.24.802.825 1.203 1.83 1.203 3.012 0 1.19-.4 2.196-1.198 3.018zm-5.196-.682c.603.61 1.34.915 2.21.915.873 0 1.61-.305 2.212-.915.603-.61.905-1.389.905-2.336 0-.947-.302-1.726-.905-2.337-.602-.61-1.34-.914-2.211-.914-.872 0-1.608.305-2.211.914-.601.61-.903 1.39-.903 2.337 0 .947.302 1.726.903 2.336z"/></g><g clip-path="url(#a471a)"><path fill="#fff" d="M103.06 18.169V10.03h1.273l3.955 6.331h.046l-.046-1.568V10.03h1.047v8.139h-1.091l-4.139-6.638h-.045l.045 1.568v5.07z"/></g><g clip-path="url(#a471a)"><path fill="none" stroke="#fff" stroke-miterlimit="20" stroke-width=".2" d="M103.06 18.169v0-8.139 0h1.273v0l3.955 6.331v0h.046v0l-.046-1.568v0-4.763 0h1.047v8.139h-1.091v0l-4.139-6.638v0h-.045v0l.045 1.568v5.07z"/></g><g clip-path="url(#a471a)"><path fill="#fff" d="M92.964 30.041c3.19 0 5.79 2.426 5.79 5.77 0 3.321-2.6 5.769-5.79 5.769-3.191 0-5.792-2.448-5.792-5.77 0-3.343 2.6-5.769 5.792-5.769zm0 9.276c1.747 0 3.256-1.445 3.256-3.502 0-2.079-1.509-3.501-3.256-3.501-1.749 0-3.257 1.422-3.257 3.501 0 2.057 1.508 3.502 3.257 3.502zM80.33 30.041c3.19 0 5.791 2.426 5.791 5.77 0 3.321-2.6 5.769-5.791 5.769-3.191 0-5.791-2.448-5.791-5.77 0-3.343 2.6-5.769 5.79-5.769zm.005 9.276c1.751 0 3.261-1.445 3.261-3.502 0-2.079-1.51-3.501-3.261-3.501-1.751 0-3.261 1.422-3.261 3.501 0 2.057 1.51 3.502 3.26 3.502zm-6.795-7.506c.088.437.132.962.132 1.53 0 1.836-.503 4.109-2.12 5.726-1.574 1.64-3.584 2.513-6.25 2.513-4.94 0-9.092-4.021-9.092-8.96 0-4.94 4.153-8.96 9.091-8.96 2.733 0 4.677 1.07 6.142 2.47l-1.727 1.725c-1.049-.983-2.47-1.748-4.415-1.748-3.605 0-6.424 2.907-6.424 6.513s2.819 6.512 6.424 6.512c2.339 0 3.672-.94 4.524-1.792.7-.699 1.159-1.704 1.333-3.081h-5.857V31.81zm53.484 2.557l-7.714 3.19c.59 1.159 1.508 1.749 2.797 1.749 1.29 0 2.186-.633 2.841-1.595l1.967 1.31c-.634.94-2.163 2.558-4.808 2.558-3.278 0-5.726-2.535-5.726-5.77 0-3.43 2.47-5.769 5.443-5.769 2.993 0 4.457 2.382 4.938 3.671zm-2.972-.874c-.284-.721-1.136-1.224-2.142-1.224-1.289 0-3.081 1.137-3.015 3.366zm-11.43-9.222h2.545v16.959h-2.544zm-4.16 6.119h2.402V40.75c0 4.261-2.51 6.01-5.48 6.01-2.795 0-4.476-1.88-5.11-3.41l2.206-.918c.393.94 1.354 2.055 2.904 2.055 1.9 0 3.079-1.18 3.079-3.388v-.83h-.087c-.569.7-1.66 1.31-3.036 1.31-2.881 0-5.524-2.512-5.524-5.747 0-3.256 2.643-5.791 5.524-5.791 1.376 0 2.467.612 3.036 1.29h.087zm-2.893 8.926c1.729 0 3.086-1.466 3.086-3.48 0-2.035-1.357-3.523-3.086-3.523-1.751 0-3.218 1.488-3.218 3.523 0 2.014 1.467 3.48 3.218 3.48zm33.068-15.045c2.806 0 5.563 2.031 5.563 5.267 0 3.235-2.757 5.266-5.563 5.266h-3.534v6.426h-2.531V24.272zm.065 8.184c1.893 0 2.967-1.596 2.967-2.912 0-1.342-1.074-2.912-2.967-2.912h-3.6v5.824zm15.643-2.446c2.901 0 5.149 1.68 5.149 4.69v6.502h-2.444v-1.31h-.087c-.589.896-1.528 1.66-3.229 1.66-2.225 0-4.21-1.463-4.21-3.732 0-2.487 2.465-3.818 4.886-3.818 1.2 0 2.182.393 2.64.655v-.175c-.022-1.396-1.353-2.181-2.661-2.181-.939 0-1.833.305-2.313 1.243l-2.247-.938c.785-1.789 2.684-2.596 4.516-2.596zm-.305 9.294a3.068 3.068 0 0 0 3.01-2.684c-.676-.327-1.2-.567-2.312-.567-1.244 0-2.684.502-2.684 1.811 0 1.025 1.156 1.44 1.986 1.44zm17.17-8.923l-6.96 15.992h-2.64l2.574-5.717-4.516-10.275h2.727l3.011 7.352h.087l2.902-7.352zm-25.613-6.109h2.53v16.959h-2.53z"/></g></g><g><g><path fill="#25d9f8" d="M14.698 10.768c-.394.418-.628 1.067-.628 1.906v30c0 .842.234 1.49.628 1.906l.1.099 16.805-16.806v-.397L14.8 10.67z"/></g><g clip-path="url(#a471b)"><path fill="#25d9f8" d="M14.698 10.768c-.394.418-.628 1.067-.628 1.906v30c0 .842.234 1.49.628 1.906l.1.099 16.805-16.806v-.397L14.8 10.67z"/></g></g><g><g><path fill="#ff9100" d="M31.6 27.473v.396l5.602 5.605.128-.073 6.636-3.77c1.897-1.078 1.897-2.84 0-3.918l-6.636-3.771-.127-.072z"/></g><g clip-path="url(#a471c)"/></g><g><g/><g clip-path="url(#a471d)"><path fill="url(#a471e)" d="M14.69 44.576c.625.661 1.657.743 2.819.083L37.325 33.4l-5.73-5.729z"/></g></g><g><g><path fill="#7fe881" d="M14.69 10.759l16.906 16.906 5.73-5.73-19.817-11.26c-.545-.309-1.06-.455-1.52-.455-.52 0-.967.188-1.299.539"/></g><g clip-path="url(#a471f)"/></g><g><g><path d="M37.199 33.27l-19.69 11.187c-1.101.626-2.086.584-2.718.015l-.101.101.1.098h.001c.632.57 1.617.611 2.718-.015l19.816-11.26z"/></g><g><path d="M14.698 44.376c-.395-.418-.628-1.066-.628-1.906v.198c0 .84.233 1.488.628 1.906l.1-.101z"/></g><g><path d="M43.964 29.43L37.2 33.273l.126.126 6.638-3.771c.947-.539 1.422-1.249 1.422-1.958-.08.642-.563 1.271-1.422 1.76"/></g><g><path fill="#fff" d="M17.517 10.875l26.453 15.03c.86.489 1.342 1.117 1.422 1.76.001-.71-.474-1.42-1.422-1.958l-26.453-15.03c-1.896-1.078-3.447-.183-3.447 1.989v.198c0-2.171 1.55-3.066 3.447-1.99"/></g></g></g></g></svg>