<?xml version="1.0" encoding="UTF-8"?>
<svg width="25px" height="25px" viewBox="0 0 25 25" version="1.1" xmlns="http://www.w3.org/2000/svg" xmlns:xlink="http://www.w3.org/1999/xlink">
    <!-- Generator: Sketch 57.1 (83088) - https://sketch.com -->
    <title>google_play_header</title>
    <desc>Created with Sketch.</desc>
    <g id="Symbols" stroke="none" stroke-width="1" fill="none" fill-rule="evenodd">
        <g id="Desktop_header" transform="translate(-1451.000000, -38.000000)">
            <g id="header">
                <g id="google_play_header" transform="translate(1451.000000, 38.000000)">
                    <rect id="Rectangle-Copy" fill="#4D4D4D" x="0" y="0" width="25" height="25" rx="12.5"></rect>
                    <g id="Group" transform="translate(9.166667, 7.500000)" fill="#FFFFFF">
                        <path d="M0.15977193,0.537175439 C0.0594385965,0.643526316 7.99360578e-14,0.808578947 7.99360578e-14,1.02226316 L7.99360578e-14,1.02226316 L7.99360578e-14,8.65877193 C7.99360578e-14,8.87294737 0.0594385965,9.03763158 0.15977193,9.14385965 L0.15977193,9.14385965 L0.185438596,9.16891228 L4.46305263,4.89105263 L4.46305263,4.84057895 L4.46305263,4.79010526 L0.185438596,0.512122807 L0.15977193,0.537175439 Z" id="Fill-31"></path>
                        <path d="M5.26305263,4.79010526 L5.26305263,4.84057895 L5.26305263,4.89105263 L6.68896491,6.31757895 L6.72150877,6.29915789 L8.41084211,5.33929825 C8.89359649,5.06507018 8.89359649,4.61633333 8.41084211,4.34222807 L8.41084211,4.34222807 L6.72150877,3.38224561 L6.68933333,3.36394737 L5.26305263,4.79010526 Z" id="Fill-34"></path>
                        <path d="M0.55977193,9.54385965 C0.718929825,9.71222807 0.981491228,9.73310526 1.27733333,9.56510526 L1.27733333,9.56510526 L6.32150877,6.69903509 L4.86305263,5.24057895 L0.55977193,9.54385965 Z" id="Fill-37"></path>
                        <path d="M0.55977193,0.137175439 L4.86305263,4.44057895 L6.32150877,2.98212281 L1.27733333,0.116052632 C1.13868421,0.0372105263 1.0072807,1.77635684e-15 0.890368421,1.77635684e-15 L0.890368421,1.77635684e-15 C0.757982456,1.77635684e-15 0.644263158,0.0477719298 0.55977193,0.137175439" id="Fill-40"></path>
                    </g>
                </g>
            </g>
        </g>
    </g>
</svg>