<?xml version="1.0" encoding="UTF-8"?>
<svg width="184px" height="55px" viewBox="0 0 184 55" version="1.1" xmlns="http://www.w3.org/2000/svg" xmlns:xlink="http://www.w3.org/1999/xlink">
    <!-- Generator: Sketch 57.1 (83088) - https://sketch.com -->
    <title>google play</title>
    <desc>Created with Sketch.</desc>
    <defs>
        <path d="M0.702938596,0.294780702 C0.30877193,0.712587719 0.0752631579,1.36100877 0.0752631579,2.20048246 L0.0752631579,2.20048246 L0.0752631579,32.2010526 C0.0752631579,33.0424561 0.30877193,33.6894298 0.702938596,34.1067544 L0.702938596,34.1067544 L0.80377193,34.2051754 L17.6086842,17.3992982 L17.6086842,17.2010088 L17.6086842,17.0027193 L0.80377193,0.196359649 L0.702938596,0.294780702 Z" id="path-1"></path>
        <path d="M0.240263158,5.90622807 L0.240263158,6.10451754 L0.240263158,6.30280702 L5.8420614,11.9070175 L5.96991228,11.8346491 L12.6065789,8.06377193 C14.503114,6.98644737 14.503114,5.22355263 12.6065789,4.14671053 L12.6065789,4.14671053 L5.96991228,0.375350877 L5.84350877,0.303464912 L0.240263158,5.90622807 Z" id="path-3"></path>
        <path d="M0.220482456,0.777236842 L17.1262281,17.6834649 L22.8558772,11.9538158 L3.03947368,0.694254386 C2.4947807,0.384517544 1.97855263,0.238333333 1.51925439,0.238333333 L1.51925439,0.238333333 C0.999166667,0.238333333 0.552412281,0.426008772 0.220482456,0.777236842" id="path-5"></path>
    </defs>
    <g id="Home-" stroke="none" stroke-width="1" fill="none" fill-rule="evenodd">
        <g id="Desktop_GC_Home" transform="translate(-391.000000, -543.000000)">
            <g id="1-screen">
                <g id="google-play" transform="translate(391.000000, 543.000000)">
                    <g id="Group-30" transform="translate(0.000000, 0.337237)">
                        <path d="M176.883667,54.461 L7.32107895,54.461 C3.59121053,54.461 0.538710526,51.4089825 0.538710526,47.6786316 L0.538710526,6.98345614 C0.538710526,3.25310526 3.59121053,0.201087719 7.32107895,0.201087719 L176.883667,0.201087719 C180.614018,0.201087719 183.666518,3.25310526 183.666518,6.98345614 L183.666518,47.6786316 C183.666518,51.4089825 180.614018,54.461 176.883667,54.461" id="Fill-4" fill="#000000"></path>
                        <path d="M176.883667,0.201425439 L7.32107895,0.201425439 C3.59121053,0.201425439 0.538710526,3.25344298 0.538710526,6.98427632 L0.538710526,47.6789693 C0.538710526,51.4093202 3.59121053,54.4613377 7.32107895,54.4613377 L176.883667,54.4613377 C180.614018,54.4613377 183.666518,51.4093202 183.666518,47.6789693 L183.666518,6.98427632 C183.666518,3.25344298 180.614018,0.201425439 176.883667,0.201425439 M176.883667,1.2864693 C180.025421,1.2864693 182.580991,3.84203947 182.580991,6.98427632 L182.580991,47.6789693 C182.580991,50.8202412 180.025421,53.3762939 176.883667,53.3762939 L7.32107895,53.3762939 C4.17980702,53.3762939 1.62375439,50.8202412 1.62375439,47.6789693 L1.62375439,6.98427632 C1.62375439,3.84203947 4.17980702,1.2864693 7.32107895,1.2864693 L176.883667,1.2864693" id="Fill-6" fill="#000000"></path>
                        <path d="M64.8617412,14.096307 C64.8617412,15.2329737 64.5254693,16.1380614 63.8509956,16.8130175 C63.0853377,17.6158246 62.0876184,18.0172281 60.8612149,18.0172281 C59.6859518,18.0172281 58.6872675,17.6105175 57.8661272,16.7961316 C57.043057,15.9812632 56.6324868,14.971 56.6324868,13.766307 C56.6324868,12.5606491 57.043057,11.5513509 57.8661272,10.7369649 C58.6872675,9.92209649 59.6859518,9.51442105 60.8612149,9.51442105 C61.4440219,9.51442105 62.0017412,9.62876316 62.5314781,9.85551754 C63.0616974,10.0837193 63.4867412,10.3862193 63.8046798,10.7654298 L63.0891974,11.4813947 C62.5502939,10.8373158 61.8082763,10.5155175 60.8612149,10.5155175 C60.0038904,10.5155175 59.2633202,10.8160877 58.6385395,11.4191579 C58.0127939,12.0217456 57.7006447,12.803807 57.7006447,13.766307 C57.7006447,14.728807 58.0127939,15.5108684 58.6385395,16.1139386 C59.2633202,16.7165263 60.0038904,17.0170965 60.8612149,17.0170965 C61.7701623,17.0170965 62.5276184,16.7145965 63.1340658,16.1086316 C63.52775,15.7135 63.7559518,15.1644649 63.8162588,14.4595965 L60.8612149,14.4595965 L60.8612149,13.4821404 L64.8048114,13.4821404 C64.8434079,13.6949035 64.8617412,13.8989825 64.8617412,14.096307" id="Fill-8" fill="#FFFFFF"></path>
                        <path d="M64.8617412,14.096307 C64.8617412,15.2329737 64.5254693,16.1380614 63.8509956,16.8130175 C63.0853377,17.6158246 62.0876184,18.0172281 60.8612149,18.0172281 C59.6859518,18.0172281 58.6872675,17.6105175 57.8661272,16.7961316 C57.043057,15.9812632 56.6324868,14.971 56.6324868,13.766307 C56.6324868,12.5606491 57.043057,11.5513509 57.8661272,10.7369649 C58.6872675,9.92209649 59.6859518,9.51442105 60.8612149,9.51442105 C61.4440219,9.51442105 62.0017412,9.62876316 62.5314781,9.85551754 C63.0616974,10.0837193 63.4867412,10.3862193 63.8046798,10.7654298 L63.0891974,11.4813947 C62.5502939,10.8373158 61.8082763,10.5155175 60.8612149,10.5155175 C60.0038904,10.5155175 59.2633202,10.8160877 58.6385395,11.4191579 C58.0127939,12.0217456 57.7006447,12.803807 57.7006447,13.766307 C57.7006447,14.728807 58.0127939,15.5108684 58.6385395,16.1139386 C59.2633202,16.7165263 60.0038904,17.0170965 60.8612149,17.0170965 C61.7701623,17.0170965 62.5276184,16.7145965 63.1340658,16.1086316 C63.52775,15.7135 63.7559518,15.1644649 63.8162588,14.4595965 L60.8612149,14.4595965 L60.8612149,13.4821404 L64.8048114,13.4821404 C64.8434079,13.6949035 64.8617412,13.8989825 64.8617412,14.096307 Z" id="Stroke-10" stroke="#FFFFFF" stroke-width="0.2"></path>
                        <polygon id="Fill-12" fill="#FFFFFF" points="71.1143728 10.6969693 67.4076623 10.6969693 67.4076623 13.2776272 70.7501184 13.2776272 70.7501184 14.2550833 67.4076623 14.2550833 67.4076623 16.8357412 71.1143728 16.8357412 71.1143728 17.8358728 66.3626623 17.8358728 66.3626623 9.69683772 71.1143728 9.69683772"></polygon>
                        <polygon id="Stroke-14" stroke="#FFFFFF" stroke-width="0.2" points="71.1143728 10.6969693 67.4076623 10.6969693 67.4076623 13.2776272 70.7501184 13.2776272 70.7501184 14.2550833 67.4076623 14.2550833 67.4076623 16.8357412 71.1143728 16.8357412 71.1143728 17.8358728 66.3626623 17.8358728 66.3626623 9.69683772 71.1143728 9.69683772"></polygon>
                        <polygon id="Fill-16" fill="#FFFFFF" points="75.5243114 17.8358246 74.477864 17.8358246 74.477864 10.6969211 72.2045307 10.6969211 72.2045307 9.69678947 77.7976447 9.69678947 77.7976447 10.6969211 75.5243114 10.6969211"></polygon>
                        <polygon id="Stroke-18" stroke="#FFFFFF" stroke-width="0.2" points="75.5243114 17.8358246 74.477864 17.8358246 74.477864 10.6969211 72.2045307 10.6969211 72.2045307 9.69678947 77.7976447 9.69678947 77.7976447 10.6969211 75.5243114 10.6969211"></polygon>
                        <polygon id="Fill-20" fill="#FFFFFF" points="81.8443421 17.8359211 82.8898246 17.8359211 82.8898246 9.69688596 81.8443421 9.69688596"></polygon>
                        <polygon id="Stroke-22" stroke="#FFFFFF" stroke-width="0.2" points="81.8443421 17.8359211 82.8898246 17.8359211 82.8898246 9.69688596 81.8443421 9.69688596"></polygon>
                        <polygon id="Fill-23" fill="#FFFFFF" points="87.5286886 17.8358246 86.4822412 17.8358246 86.4822412 10.6969211 84.2093904 10.6969211 84.2093904 9.69678947 89.8020219 9.69678947 89.8020219 10.6969211 87.5286886 10.6969211"></polygon>
                        <polygon id="Stroke-24" stroke="#FFFFFF" stroke-width="0.2" points="87.5286886 17.8358246 86.4822412 17.8358246 86.4822412 10.6969211 84.2093904 10.6969211 84.2093904 9.69678947 89.8020219 9.69678947 89.8020219 10.6969211 87.5286886 10.6969211"></polygon>
                        <path d="M95.1940482,16.1024561 C95.7971184,16.7127632 96.5333465,17.017193 97.4051447,17.017193 C98.276943,17.017193 99.0146184,16.7127632 99.6162412,16.1024561 C100.218829,15.4926316 100.520846,14.7134649 100.520846,13.7664035 C100.520846,12.8193421 100.218829,12.0401754 99.6162412,11.4298684 C99.0146184,10.8200439 98.276943,10.515614 97.4051447,10.515614 C96.5333465,10.515614 95.7971184,10.8200439 95.1940482,11.4298684 C94.5929079,12.0401754 94.2908904,12.8193421 94.2908904,13.7664035 C94.2908904,14.7134649 94.5929079,15.4926316 95.1940482,16.1024561 M100.390101,16.7841667 C99.5892237,17.6067544 98.5948816,18.0173246 97.4051447,18.0173246 C96.2154079,18.0173246 95.2210658,17.6067544 94.421636,16.7841667 C93.6217237,15.9620614 93.2232149,14.9561404 93.2232149,13.7664035 C93.2232149,12.5766667 93.6217237,11.5702632 94.421636,10.7486404 C95.2210658,9.92605263 96.2154079,9.51451754 97.4051447,9.51451754 C98.5881272,9.51451754 99.5805395,9.92798246 100.384794,10.7539474 C101.187118,11.5799123 101.588522,12.5839035 101.588522,13.7664035 C101.588522,14.9561404 101.188566,15.9620614 100.390101,16.7841667" id="Fill-25" fill="#FFFFFF"></path>
                        <path d="M95.1940482,16.1024561 C95.7971184,16.7127632 96.5333465,17.017193 97.4051447,17.017193 C98.276943,17.017193 99.0146184,16.7127632 99.6162412,16.1024561 C100.218829,15.4926316 100.520846,14.7134649 100.520846,13.7664035 C100.520846,12.8193421 100.218829,12.0401754 99.6162412,11.4298684 C99.0146184,10.8200439 98.276943,10.515614 97.4051447,10.515614 C96.5333465,10.515614 95.7971184,10.8200439 95.1940482,11.4298684 C94.5929079,12.0401754 94.2908904,12.8193421 94.2908904,13.7664035 C94.2908904,14.7134649 94.5929079,15.4926316 95.1940482,16.1024561 Z M100.390101,16.7841667 C99.5892237,17.6067544 98.5948816,18.0173246 97.4051447,18.0173246 C96.2154079,18.0173246 95.2210658,17.6067544 94.421636,16.7841667 C93.6217237,15.9620614 93.2232149,14.9561404 93.2232149,13.7664035 C93.2232149,12.5766667 93.6217237,11.5702632 94.421636,10.7486404 C95.2210658,9.92605263 96.2154079,9.51451754 97.4051447,9.51451754 C98.5881272,9.51451754 99.5805395,9.92798246 100.384794,10.7539474 C101.187118,11.5799123 101.588522,12.5839035 101.588522,13.7664035 C101.588522,14.9561404 101.188566,15.9620614 100.390101,16.7841667 Z" id="Stroke-26" stroke="#FFFFFF" stroke-width="0.2"></path>
                        <polygon id="Fill-27" fill="#FFFFFF" points="103.056588 17.8358246 103.056588 9.69678947 104.329789 9.69678947 108.284965 16.0280614 108.330316 16.0280614 108.284965 14.4595965 108.284965 9.69678947 109.331412 9.69678947 109.331412 17.8358246 108.240096 17.8358246 104.101588 11.1977105 104.056237 11.1977105 104.101588 12.7661754 104.101588 17.8358246"></polygon>
                        <polygon id="Stroke-28" stroke="#FFFFFF" stroke-width="0.2" points="103.056588 17.8358246 103.056588 9.69678947 104.329789 9.69678947 108.284965 16.0280614 108.330316 16.0280614 108.284965 14.4595965 108.284965 9.69678947 109.331412 9.69678947 109.331412 17.8358246 108.240096 17.8358246 104.101588 11.1977105 104.056237 11.1977105 104.101588 12.7661754 104.101588 17.8358246"></polygon>
                        <path d="M145.598026,40.8968421 L148.128509,40.8968421 L148.128509,23.9385088 L145.598026,23.9385088 L145.598026,40.8968421 Z M168.396491,30.046886 L165.494518,37.3995175 L165.407675,37.3995175 L162.396667,30.046886 L159.669825,30.046886 L164.185614,40.3227193 L161.611228,46.0388596 L164.251228,46.0388596 L171.21114,30.046886 L168.396491,30.046886 Z M154.041009,38.9699123 C153.211667,38.9699123 152.055702,38.5554825 152.055702,37.5302632 C152.055702,36.2213596 153.495351,35.7191228 154.739123,35.7191228 C155.851667,35.7191228 156.375614,35.959386 157.051535,36.2864912 C156.855175,37.8573684 155.502368,38.9699123 154.041009,38.9699123 L154.041009,38.9699123 Z M154.346404,29.6763596 C152.514035,29.6763596 150.61557,30.4835088 149.830132,32.2724561 L152.077412,33.2103509 C152.557456,32.2724561 153.45193,31.9670614 154.390307,31.9670614 C155.698728,31.9670614 157.029825,32.7525 157.051535,34.1482456 L157.051535,34.3233772 C156.593684,34.0614035 155.611886,33.6686842 154.411535,33.6686842 C151.990088,33.6686842 149.525219,34.9992982 149.525219,37.4863596 C149.525219,39.7553509 151.510044,41.2176754 153.735614,41.2176754 C155.436754,41.2176754 156.375614,40.4539474 156.964693,39.5589912 L157.051535,39.5589912 L157.051535,40.8683772 L159.495175,40.8683772 L159.495175,34.3667982 C159.495175,31.3557895 157.247895,29.6763596 154.346404,29.6763596 L154.346404,29.6763596 Z M138.703728,32.1117982 L135.104123,32.1117982 L135.104123,26.2986842 L138.703728,26.2986842 C140.596404,26.2986842 141.670833,27.8657018 141.670833,29.205 C141.670833,30.5192105 140.596404,32.1117982 138.703728,32.1117982 L138.703728,32.1117982 Z M138.638114,23.9385088 L132.573158,23.9385088 L132.573158,40.8968421 L135.104123,40.8968421 L135.104123,34.4714912 L138.638114,34.4714912 C141.444079,34.4714912 144.201316,32.4403509 144.201316,29.205 C144.201316,25.9696491 141.444079,23.9385088 138.638114,23.9385088 L138.638114,23.9385088 Z M105.565263,38.9732895 C103.816842,38.9732895 102.352588,37.5090351 102.352588,35.4986404 C102.352588,33.4660526 103.816842,31.9800877 105.565263,31.9800877 C107.291491,31.9800877 108.646711,33.4660526 108.646711,35.4986404 C108.646711,37.5090351 107.291491,38.9732895 105.565263,38.9732895 L105.565263,38.9732895 Z M108.472061,30.9968421 L108.384737,30.9968421 C107.815921,30.3194737 106.72364,29.7072368 105.346711,29.7072368 C102.462588,29.7072368 99.8177632,32.2425439 99.8177632,35.4986404 C99.8177632,38.7330263 102.462588,41.2461404 105.346711,41.2461404 C106.72364,41.2461404 107.815921,40.634386 108.384737,39.9348246 L108.472061,39.9348246 L108.472061,40.7651316 C108.472061,42.9723684 107.291491,44.1529386 105.390614,44.1529386 C103.839035,44.1529386 102.8775,43.0379825 102.484298,42.0986404 L100.276579,43.0162719 C100.910526,44.5461404 102.593333,46.4257895 105.390614,46.4257895 C108.362544,46.4257895 110.875658,44.6773684 110.875658,40.4158333 L110.875658,30.0570175 L108.472061,30.0570175 L108.472061,30.9968421 Z M112.624079,40.8968421 L115.158904,40.8968421 L115.158904,23.9385088 L112.624079,23.9385088 L112.624079,40.8968421 Z M118.896009,35.3017982 C118.830395,33.0728509 120.622719,31.9361842 121.911842,31.9361842 C122.917281,31.9361842 123.769781,32.4389035 124.053947,33.1601754 L118.896009,35.3017982 Z M126.763904,33.3787281 C126.282895,32.0896053 124.81864,29.7072368 121.825,29.7072368 C118.852105,29.7072368 116.382895,32.0457018 116.382895,35.4764474 C116.382895,38.7108333 118.830395,41.2461404 122.108684,41.2461404 C124.753026,41.2461404 126.282895,39.6289474 126.91636,38.6891228 L124.949868,37.3782895 C124.294211,38.3398246 123.397807,38.9732895 122.108684,38.9732895 C120.819561,38.9732895 119.901447,38.3832456 119.311886,37.2248684 L127.025877,34.034386 L126.763904,33.3787281 Z M65.3028509,31.4773684 L65.3028509,33.9248684 L71.1598684,33.9248684 C70.9852193,35.3017982 70.5259211,36.3072368 69.8268421,37.0063158 C68.9743421,37.8588158 67.6413158,38.7986404 65.3028509,38.7986404 C61.6969737,38.7986404 58.8779825,35.8923246 58.8779825,32.2859649 C58.8779825,28.6800877 61.6969737,25.7737719 65.3028509,25.7737719 C67.248114,25.7737719 68.6684649,26.5384649 69.717807,27.5217105 L71.4440351,25.7954825 C69.9797807,24.3968421 68.035,23.3262719 65.3028509,23.3262719 C60.3639474,23.3262719 56.2114474,27.3470614 56.2114474,32.2859649 C56.2114474,37.2248684 60.3639474,41.2461404 65.3028509,41.2461404 C67.969386,41.2461404 69.9797807,40.3724123 71.5530702,38.7330263 C73.1702632,37.1158333 73.6729825,34.8429825 73.6729825,33.0072368 C73.6729825,32.4389035 73.6295614,31.9144737 73.5417544,31.4773684 L65.3028509,31.4773684 Z M80.3313596,38.9732895 C78.5829386,38.9732895 77.0752632,37.5307456 77.0752632,35.4764474 C77.0752632,33.4004386 78.5829386,31.9800877 80.3313596,31.9800877 C82.0797807,31.9800877 83.5874561,33.4004386 83.5874561,35.4764474 C83.5874561,37.5307456 82.0797807,38.9732895 80.3313596,38.9732895 L80.3313596,38.9732895 Z M80.3313596,29.7072368 C77.1403947,29.7072368 74.5399561,32.1335088 74.5399561,35.4764474 C74.5399561,38.7986404 77.1403947,41.2461404 80.3313596,41.2461404 C83.5218421,41.2461404 86.1227632,38.7986404 86.1227632,35.4764474 C86.1227632,32.1335088 83.5218421,29.7072368 80.3313596,29.7072368 L80.3313596,29.7072368 Z M92.9649561,38.9732895 C91.2165351,38.9732895 89.7088596,37.5307456 89.7088596,35.4764474 C89.7088596,33.4004386 91.2165351,31.9800877 92.9649561,31.9800877 C94.7128947,31.9800877 96.2210526,33.4004386 96.2210526,35.4764474 C96.2210526,37.5307456 94.7128947,38.9732895 92.9649561,38.9732895 L92.9649561,38.9732895 Z M92.9649561,29.7072368 C89.7739912,29.7072368 87.1735526,32.1335088 87.1735526,35.4764474 C87.1735526,38.7986404 89.7739912,41.2461404 92.9649561,41.2461404 C96.1554386,41.2461404 98.7563596,38.7986404 98.7563596,35.4764474 C98.7563596,32.1335088 96.1554386,29.7072368 92.9649561,29.7072368 L92.9649561,29.7072368 Z" id="Fill-29" fill="#FFFFFF"></path>
                    </g>
                    <g id="Group-33" transform="translate(12.991228, 10.468816)">
                        <mask id="mask-2" fill="white">
                            <use xlink:href="#path-1"></use>
                        </mask>
                        <use id="Clip-32" fill="#FFFFFF" xlink:href="#path-1"></use>
                    </g>
                    <g id="Group-36" transform="translate(32.359649, 21.565307)">
                        <mask id="mask-4" fill="white">
                            <use xlink:href="#path-3"></use>
                        </mask>
                        <use id="Clip-35" fill="#FFFFFF" xlink:href="#path-3"></use>
                    </g>
                    <g id="Group-39" transform="translate(14.473684, 28.354781)" fill="#FFFFFF">
                        <path d="M0.220482456,17.2207895 C0.845745614,17.8822368 1.87723684,17.9642544 3.03947368,17.3042544 L3.03947368,17.3042544 L22.8558772,6.04469298 L17.1262281,0.31504386 L0.220482456,17.2207895 Z" id="Fill-37"></path>
                    </g>
                    <g id="Group-42" transform="translate(14.473684, 8.986360)">
                        <mask id="mask-6" fill="white">
                            <use xlink:href="#path-5"></use>
                        </mask>
                        <use id="Clip-41" fill="#7FE881" xlink:href="#path-5"></use>
                        <path d="M0.220482456,0.777236842 L17.1262281,17.6834649 L22.8558772,11.9538158 L3.03947368,0.694254386 C2.4947807,0.384517544 1.97855263,0.238333333 1.51925439,0.238333333 L1.51925439,0.238333333 C0.999166667,0.238333333 0.552412281,0.426008772 0.220482456,0.777236842" id="Fill-40" fill="#FFFFFF" mask="url(#mask-6)"></path>
                    </g>
                </g>
            </g>
        </g>
    </g>
</svg>