<?xml version="1.0" encoding="UTF-8"?>
<svg xmlns="http://www.w3.org/2000/svg" width="273" height="30" viewBox="0 0 273 30"><g><g><path fill="#74af26" d="M136 1c-7.732 0-14 6.268-14 14s6.268 14 14 14c4.201 0 7.97-1.85 10.536-4.78l-2.634-2.306A10.475 10.475 0 0 1 136 25.5c-5.799 0-10.5-4.701-10.5-10.5S130.201 4.5 136 4.5c3.15 0 5.978 1.388 7.902 3.586l2.634-2.305A13.967 13.967 0 0 0 136 1zm17.5 3.5h8.75c7 0 7 10.5 0 10.5h-8.75zm8.75-3.5H150v28h3.5V18.5h7.55l7.5 10.5h4.2l-7.738-10.833C174.418 15.752 173.497 1 162.25 1zm21 17.5V29h3.5V18.5L197.25 1h-4.2L185 15l-8.05-14h-4.2zm21-14H213c7 0 7 10.5 0 10.5h-8.75zm0 24.5V18.5H213c12.25 0 12.25-17.5 0-17.5h-12.25v28zM223.5 4.5h8.75V29h3.5V4.5h8.75V1h-21zM248 15c0-5.799 4.701-10.5 10.5-10.5S269 9.201 269 15s-4.701 10.5-10.5 10.5S248 20.799 248 15zm24.5 0c0-7.732-6.268-14-14-14s-14 6.268-14 14 6.268 14 14 14 14-6.268 14-14z"/></g><g><path fill="#fff" d="M26.25 13.125V30H15C6.716 30 0 23.284 0 15 0 6.716 6.716 0 15 0h11.25v7.5H15a7.5 7.5 0 1 0 0 15h3.75v-9.375zM43.125 22.5a7.5 7.5 0 1 0 0-15 7.5 7.5 0 0 0 0 15zm0 7.5c-8.284 0-15-6.716-15-15 0-8.284 6.716-15 15-15 8.284 0 15 6.716 15 15 0 8.284-6.716 15-15 15zM75 22.5a7.5 7.5 0 1 0 0-15 7.5 7.5 0 0 0 0 15zm0 7.5c-8.284 0-15-6.716-15-15 0-8.284 6.716-15 15-15 8.284 0 15 6.716 15 15 0 8.284-6.716 15-15 15zM99.375 7.5v15h3.75a7.5 7.5 0 1 0 0-15zm-7.5 22.5V0h11.25c8.284 0 15 6.716 15 15 0 8.284-6.716 15-15 15z"/></g></g></svg>