<?xml version="1.0" encoding="UTF-8"?>
<svg width="25px" height="25px" viewBox="0 0 25 25" version="1.1" xmlns="http://www.w3.org/2000/svg" xmlns:xlink="http://www.w3.org/1999/xlink">
    <!-- Generator: Sketch 57.1 (83088) - https://sketch.com -->
    <title>web_app_header</title>
    <desc>Created with Sketch.</desc>
    <g id="Symbols" stroke="none" stroke-width="1" fill="none" fill-rule="evenodd">
        <g id="Desktop_header" transform="translate(-1525.000000, -38.000000)">
            <g id="header">
                <g id="web_app_header" transform="translate(1525.000000, 38.000000)">
                    <rect id="Rectangle-Copy" fill="#4D4D4D" x="0" y="0" width="25" height="25" rx="12.5"></rect>
                    <g id="imac" transform="translate(7.000000, 8.000000)" fill="#FFFFFF" fill-rule="nonzero">
                        <path d="M9.98580851,0 L0.907808511,0 C0.407361702,0 0,0.407148936 0,0.907808511 L0,7.26242553 C0,7.76308511 0.407361702,8.17023404 0.907808511,8.17023404 L4.08612766,8.17023404 C4.07659574,8.53231915 4.00744681,9.11151064 3.74778723,9.385 C3.65248936,9.48517021 3.54344681,9.53193617 3.40425532,9.53193617 C3.27880851,9.53193617 3.17729787,9.63344681 3.17729787,9.75889362 C3.17729787,9.88434043 3.27880851,9.98585106 3.40425532,9.98585106 L7.4893617,9.98585106 C7.61480851,9.98585106 7.71631915,9.88434043 7.71631915,9.75889362 C7.71631915,9.63344681 7.61480851,9.53193617 7.4893617,9.53193617 C7.35017021,9.53193617 7.24112766,9.48538298 7.1462766,9.38521277 C6.88725532,9.11308511 6.81765957,8.53306383 6.80776596,8.17023404 L9.98582979,8.17023404 C10.4862766,8.17023404 10.8936383,7.76310638 10.8936383,7.26242553 L10.8936383,0.907808511 C10.8936383,0.407148936 10.4862553,0 9.98580851,0 Z M5.44680851,7.7176383 C5.19591489,7.7176383 4.99157447,7.51329787 4.99157447,7.26240426 C4.99157447,7.01151064 5.19591489,6.80717021 5.44680851,6.80717021 C5.69770213,6.80717021 5.90204255,7.01151064 5.90204255,7.26240426 C5.90204255,7.51329787 5.69770213,7.7176383 5.44680851,7.7176383 Z M0.907808511,6.35461702 L0.907808511,0.907808511 L9.98582979,0.907808511 L9.98621277,6.35461702 L0.907808511,6.35461702 Z" id="Shape"></path>
                    </g>
                </g>
            </g>
        </g>
    </g>
</svg>